<?xml version="1.0" standalone="no"?>
<!DOCTYPE svg PUBLIC "-//W3C//DTD SVG 20010904//EN"
 "http://www.w3.org/TR/2001/REC-SVG-20010904/DTD/svg10.dtd">
<svg version="1.0" xmlns="http://www.w3.org/2000/svg"
 width="891.000000pt" height="891.000000pt" viewBox="0 0 891.000000 891.000000"
 preserveAspectRatio="xMidYMid meet">
<metadata>
Created by potrace 1.11, written by Peter Selinger 2001-2013
</metadata>
<g transform="translate(0.000000,891.000000) scale(0.100000,-0.100000)"
fill="#000000" stroke="none">
<path d="M2457 7888 c-7 -4 -11 -161 -11 -512 l-1 -505 22 20 c110 105 986
988 985 995 -2 10 -979 12 -995 2z"/>
<path d="M3634 7887 c-8 -5 -284 -278 -614 -608 l-599 -599 4 -413 c5 -569 17
-2131 19 -2479 l1 -288 908 0 c905 0 909 0 914 -20 6 -22 15 -21 82 6 18 8 58
14 88 14 46 0 56 -3 60 -20 4 -17 14 -20 58 -20 44 0 54 3 58 20 4 17 14 20
66 20 53 0 61 -2 61 -19 0 -20 31 -29 83 -23 19 2 27 9 27 23 0 17 7 19 66 19
57 0 67 -3 71 -20 8 -29 88 -29 96 0 5 20 15 20 882 22 l877 3 0 2188 c0 1204
-3 2191 -6 2195 -10 9 -3185 8 -3202 -1z"/>
<path d="M8027 3483 c-2 -5 -3 -57 -2 -118 l1 -110 440 -3 441 -2 1 120 1 120
-439 0 c-241 0 -440 -3 -443 -7z"/>
<path d="M3324 3190 c-10 -4 -25 -5 -31 -3 -14 5 -15 2 -18 -61 -1 -27 4 -45
17 -58 19 -19 24 -33 9 -23 -5 3 -13 0 -17 -7 -10 -16 -13 -49 -4 -43 3 2 12
0 19 -5 10 -6 9 -9 -7 -14 -32 -10 -16 -38 19 -34 31 3 35 -15 4 -20 -36 -5
-40 -20 -40 -155 l0 -132 25 1 c24 1 40 3 123 19 l37 7 0 74 c0 57 3 72 13 68
10 -3 12 -19 9 -54 -3 -35 0 -50 8 -50 7 0 10 6 7 14 -3 7 1 26 9 41 10 19 13
49 11 92 -4 54 -1 67 18 89 16 19 24 22 27 13 5 -15 68 -20 68 -6 0 12 35 4
35 -8 1 -6 9 -26 20 -45 10 -19 22 -59 26 -88 4 -30 9 -56 12 -58 2 -3 16 0
31 5 35 14 33 -3 -3 -25 -27 -16 -30 -22 -31 -83 -6 -189 -4 -213 13 -222 22
-13 23 -51 2 -43 -12 5 -15 -5 -16 -52 -1 -72 -4 -101 -13 -135 -7 -26 -6 -26
56 -33 35 -4 77 -8 95 -7 17 0 37 -7 44 -15 10 -13 8 -14 -17 -10 -16 3 -71 8
-122 11 -78 5 -93 4 -98 -9 -5 -12 -21 -16 -70 -15 -35 1 -67 5 -70 10 -8 13
-25 11 -23 -3 3 -29 -2 -38 -26 -38 -27 0 -45 25 -45 64 0 14 -4 27 -8 30 -12
7 -14 66 -2 66 5 0 10 -4 10 -10 0 -5 5 -10 11 -10 6 0 10 10 9 23 -4 42 0 80
7 73 4 -4 6 -34 5 -67 -1 -34 2 -59 8 -59 19 0 25 -3 37 -19 10 -13 12 -7 12
34 0 44 -1 48 -13 33 -20 -27 -24 -22 -19 22 3 27 1 40 -7 40 -9 0 -11 10 -6
31 4 22 1 36 -14 51 -11 12 -16 24 -11 27 4 3 14 23 20 44 16 46 25 48 18 3
-4 -23 -1 -39 8 -46 8 -6 15 -28 17 -48 2 -20 4 18 5 86 0 67 -3 122 -8 122
-5 0 -9 -6 -9 -14 0 -8 -5 -18 -12 -22 -8 -5 -9 0 -5 15 8 30 -30 54 -74 46
-27 -5 -32 -4 -21 6 22 23 13 26 -48 16 -33 -5 -60 -14 -60 -18 0 -5 6 -9 14
-9 8 0 17 -6 20 -12 5 -10 7 -10 12 0 3 6 13 12 22 12 13 0 10 -6 -11 -26 -27
-25 -29 -25 -42 -8 -13 17 -14 16 -15 -18 0 -20 5 -40 11 -44 8 -4 7 -9 -2
-15 -13 -8 -16 -126 -10 -379 0 -14 0 -38 0 -55 0 -16 0 -39 0 -50 1 -11 -1
-38 -3 -60 -4 -42 7 -75 25 -75 6 0 8 4 4 9 -3 5 -1 12 4 16 5 3 14 -2 19 -11
7 -12 11 -13 17 -4 5 7 -3 22 -19 36 -25 24 -35 54 -17 54 4 0 21 -18 36 -40
15 -22 33 -41 39 -41 22 -3 42 -2 72 5 26 6 37 2 57 -17 24 -21 32 -23 79 -16
29 4 62 8 73 8 17 1 15 4 -10 21 -16 11 -24 20 -16 20 8 0 29 -11 47 -25 32
-25 33 -25 86 -9 161 47 248 148 272 314 13 88 16 250 5 250 -7 0 -8 4 -2 13
7 9 9 113 4 190 -1 4 -5 7 -10 7 -5 0 -9 -17 -8 -37 2 -32 -1 -38 -18 -38 -17
0 -19 6 -15 55 2 30 4 74 3 98 -1 35 2 42 14 38 8 -3 16 -6 17 -6 2 0 2 -20 1
-45 -2 -31 1 -45 10 -45 10 0 12 16 10 62 -4 63 -4 63 -33 60 -23 -3 -31 1
-36 20 -6 21 -7 22 -17 5 -8 -14 -14 -15 -24 -7 -10 8 -10 16 -1 35 6 14 15
25 19 25 5 0 5 10 2 21 -10 31 -12 89 -3 89 5 0 8 -6 8 -14 0 -8 4 -17 8 -20
5 -3 8 17 8 45 -1 27 -4 49 -8 49 -5 0 -8 9 -8 20 0 11 -5 20 -11 20 -13 0
-49 38 -49 52 0 4 -7 8 -15 8 -8 0 -15 -7 -15 -16 0 -8 -4 -12 -10 -9 -5 3
-10 15 -10 26 0 27 -52 47 -137 54 -37 4 -80 8 -95 10 -18 2 -53 -12 -110 -46
-80 -47 -116 -60 -103 -39 4 6 33 24 65 40 32 16 61 34 65 40 7 11 -189 11
-221 0z m371 -40 c-3 -5 -10 -10 -16 -10 -5 0 -9 5 -9 10 0 6 7 10 16 10 8 0
12 -4 9 -10z m99 -38 c-16 -8 -42 -25 -59 -37 -16 -13 -41 -26 -55 -30 -22 -7
-23 -6 -11 9 8 9 36 29 62 44 27 15 49 33 49 40 0 10 5 10 22 1 21 -12 21 -12
-8 -27z m116 -58 c0 -14 -4 -23 -9 -19 -17 10 -24 -18 -8 -30 10 -7 17 -17 17
-24 0 -12 -30 -16 -30 -3 -1 4 -5 26 -9 49 -6 29 -5 44 3 47 25 10 36 5 36
-20z m-495 -15 c10 -15 -1 -23 -20 -15 -9 3 -13 10 -10 16 8 13 22 13 30 -1z
m60 -29 c3 -5 -1 -10 -10 -10 -9 0 -13 5 -10 10 3 6 8 10 10 10 2 0 7 -4 10
-10z m195 -29 c0 -6 -4 -13 -10 -16 -5 -3 -10 1 -10 9 0 9 5 16 10 16 6 0 10
-4 10 -9z m-234 -30 c-3 -5 -17 -11 -30 -13 -17 -4 -23 -1 -19 9 3 7 16 13 30
13 13 0 22 -4 19 -9z m331 -28 c-15 -16 -17 -16 -17 -1 0 9 6 18 13 21 20 7
22 -2 4 -20z m165 2 c-3 -20 -8 -23 -22 -15 -11 6 -21 5 -28 -2 -13 -13 -16 0
-4 18 6 10 23 17 53 23 3 0 4 -10 1 -24z m-497 -15 c3 -5 1 -10 -4 -10 -6 0
-11 5 -11 10 0 6 2 10 4 10 3 0 8 -4 11 -10z m285 0 c0 -5 -4 -10 -9 -10 -6 0
-13 5 -16 10 -3 6 1 10 9 10 9 0 16 -4 16 -10z m137 -32 c-3 -8 -6 -5 -6 6 -1
11 2 17 5 13 3 -3 4 -12 1 -19z m-101 -9 c-15 -12 -29 -19 -32 -16 -8 8 26 37
43 37 11 0 7 -7 -11 -21z m178 -4 c-4 -8 -13 -15 -21 -15 -13 0 -13 3 -3 15 7
8 16 15 21 15 5 0 6 -7 3 -15z m-167 -25 c-1 -11 -5 -20 -9 -20 -4 0 -8 9 -8
20 0 11 4 20 9 20 6 0 9 -9 8 -20z m63 10 c0 -9 -31 -30 -44 -30 -14 0 -4 29
12 33 29 8 32 7 32 -3z m88 -75 c-2 -1 -13 -7 -25 -14 -20 -10 -21 -9 -17 17
9 53 14 58 30 27 8 -15 13 -29 12 -30z m-508 11 c0 -3 -4 -8 -10 -11 -5 -3
-10 -1 -10 4 0 6 5 11 10 11 6 0 10 -2 10 -4z m559 -77 c-8 -5 -22 -9 -31 -9
-9 0 -34 -11 -54 -25 -34 -23 -64 -32 -64 -20 0 9 82 57 119 70 36 12 57 1 30
-16z m4 -106 c-8 -43 -14 -84 -15 -90 -1 -7 -5 -13 -10 -13 -5 0 -8 10 -7 23
1 12 -1 29 -5 38 -4 10 1 30 13 50 12 19 21 42 21 52 0 9 4 17 8 17 5 0 2 -35
-5 -77z m-203 12 c-7 -8 -17 -12 -23 -8 -6 4 -3 11 8 19 23 17 32 10 15 -11z
m135 -61 c1 -13 0 -24 0 -24 -1 0 -16 7 -33 16 -46 22 -53 39 -14 31 21 -4 32
-3 32 5 0 23 15 -4 15 -28z m-515 -5 c0 -5 -4 -9 -10 -9 -5 0 -10 7 -10 16 0
8 5 12 10 9 6 -3 10 -10 10 -16z m30 -39 c0 -49 -45 -69 -56 -24 -7 27 9 54
20 35 14 -21 26 -11 20 17 -4 21 -3 24 5 12 6 -8 11 -26 11 -40z m405 40 c3
-5 1 -10 -4 -10 -6 0 -11 5 -11 10 0 6 2 10 4 10 3 0 8 -4 11 -10z m47 -32
c-7 -7 -12 -8 -12 -2 0 14 12 26 19 19 2 -3 -1 -11 -7 -17z m-520 -92 c7 -33
-7 -55 -15 -24 -9 32 -8 48 2 48 5 0 11 -11 13 -24z m-55 -28 c-3 -8 -6 -5 -6
6 -1 11 2 17 5 13 3 -3 4 -12 1 -19z m150 -40 c-3 -8 -6 -5 -6 6 -1 11 2 17 5
13 3 -3 4 -12 1 -19z m-83 -13 c3 -8 1 -15 -4 -15 -6 0 -10 7 -10 15 0 8 2 15
4 15 2 0 6 -7 10 -15z m586 -20 c0 -14 -40 -38 -49 -29 -4 4 38 44 46 44 1 0
3 -7 3 -15z m-535 -45 c3 -5 1 -10 -4 -10 -6 0 -11 5 -11 10 0 6 2 10 4 10 3
0 8 -4 11 -10z m-25 -70 c0 -5 -4 -10 -10 -10 -5 0 -10 5 -10 10 0 6 5 10 10
10 6 0 10 -4 10 -10z m535 -50 c3 -5 2 -10 -4 -10 -5 0 -13 5 -16 10 -3 6 -2
10 4 10 5 0 13 -4 16 -10z m72 -53 c-12 -24 -23 -37 -25 -30 -5 17 28 84 39
78 4 -3 -2 -25 -14 -48z m-307 -7 c0 -5 -5 -10 -11 -10 -5 0 -7 5 -4 10 3 6 8
10 11 10 2 0 4 -4 4 -10z m-325 -10 c-3 -5 -10 -10 -16 -10 -5 0 -9 5 -9 10 0
6 7 10 16 10 8 0 12 -4 9 -10z m545 -15 c0 -8 -4 -15 -10 -15 -5 0 -7 7 -4 15
4 8 8 15 10 15 2 0 4 -7 4 -15z m-396 -20 c-6 -16 -24 -21 -24 -7 0 11 11 22
21 22 5 0 6 -7 3 -15z m-204 -53 c0 -7 -4 -10 -10 -7 -5 3 -10 16 -10 28 0 18
2 19 10 7 5 -8 10 -21 10 -28z m594 -20 c-4 -45 -6 -48 -13 -17 -8 35 -2 73 9
55 4 -6 6 -23 4 -38z m-287 6 c-3 -8 -6 -5 -6 6 -1 11 2 17 5 13 3 -3 4 -12 1
-19z m-6 -38 c5 0 9 -4 9 -9 0 -9 -47 -21 -54 -14 -10 10 8 34 21 29 8 -3 19
-6 24 -6z m-6 -71 c-7 -11 -35 -12 -35 -1 0 4 9 8 20 9 11 1 18 -2 15 -8z
m-55 -9 c0 -5 -4 -10 -10 -10 -5 0 -10 5 -10 10 0 6 5 10 10 10 6 0 10 -4 10
-10z"/>
<path d="M1635 3180 c-3 -5 -1 -10 4 -10 6 0 11 5 11 10 0 6 -2 10 -4 10 -3 0
-8 -4 -11 -10z"/>
<path d="M1715 3180 c-3 -5 3 -10 14 -10 12 0 21 5 21 10 0 6 -6 10 -14 10 -8
0 -18 -4 -21 -10z"/>
<path d="M1790 3180 c0 -5 14 -10 32 -10 36 0 35 4 -4 14 -17 4 -28 2 -28 -4z"/>
<path d="M1875 3180 c-3 -5 3 -10 15 -10 12 0 18 5 15 10 -3 6 -10 10 -15 10
-5 0 -12 -4 -15 -10z"/>
<path d="M4605 3180 c3 -5 8 -10 11 -10 2 0 4 5 4 10 0 6 -5 10 -11 10 -5 0
-7 -4 -4 -10z"/>
<path d="M4684 3178 c-3 -4 4 -8 15 -8 12 0 21 4 21 8 0 5 -7 9 -15 9 -9 0
-18 -4 -21 -9z"/>
<path d="M4765 3180 c-4 -6 7 -10 27 -9 27 0 30 2 13 9 -27 12 -33 12 -40 0z"/>
<path d="M4845 3181 c-3 -5 2 -11 10 -15 8 -3 17 -1 20 3 3 5 -2 11 -10 15 -8
3 -17 1 -20 -3z"/>
<path d="M6575 3180 c-3 -5 -1 -10 4 -10 6 0 11 5 11 10 0 6 -2 10 -4 10 -3 0
-8 -4 -11 -10z"/>
<path d="M6654 3178 c-3 -4 4 -8 15 -8 12 0 21 4 21 8 0 5 -7 9 -15 9 -9 0
-18 -4 -21 -9z"/>
<path d="M6735 3180 c3 -5 18 -10 32 -10 32 0 25 9 -12 16 -17 3 -24 1 -20 -6z"/>
<path d="M6817 3184 c-11 -11 3 -24 18 -18 8 4 12 10 9 15 -6 11 -18 12 -27 3z"/>
<path d="M5730 3171 c0 -3 19 -16 43 -29 23 -12 56 -34 72 -47 l30 -26 -37 15
c-20 8 -62 31 -94 51 l-58 37 -96 -6 c-125 -8 -159 -19 -167 -57 -6 -32 -20
-38 -25 -12 -2 13 -12 8 -46 -24 -23 -22 -42 -45 -42 -51 0 -6 -7 -15 -16 -20
-14 -8 -14 -10 0 -22 12 -9 13 -16 5 -26 -6 -7 -9 -21 -7 -31 3 -15 7 -12 20
12 l17 30 -5 -40 c-2 -22 -7 -47 -9 -56 -3 -8 2 -30 11 -47 16 -34 11 -63 -9
-43 -16 16 -27 14 -27 -5 0 -11 -8 -15 -31 -12 l-30 3 -4 -63 c-2 -43 0 -62 8
-59 6 2 12 20 12 41 1 20 9 44 19 54 16 16 17 15 13 -19 -2 -20 -7 -41 -12
-48 -5 -9 0 -12 16 -9 18 2 24 -3 32 -32 5 -19 16 -43 24 -52 10 -11 13 -24 8
-35 -4 -10 -7 -31 -5 -48 2 -28 -11 -30 -17 -2 -1 7 -7 30 -12 52 -6 22 -11
57 -13 77 -1 20 -6 34 -11 31 -4 -3 -7 -26 -6 -52 1 -26 -1 -53 -5 -60 -13
-21 -32 5 -30 43 1 20 -2 36 -7 36 -5 0 -9 -3 -9 -7 -6 -92 -5 -181 3 -190 6
-9 6 -13 -2 -13 -8 0 -10 -30 -6 -107 8 -159 13 -186 47 -264 30 -72 65 -113
132 -153 61 -37 168 -66 174 -47 5 14 62 45 69 37 4 -3 -9 -12 -28 -20 -31
-14 -26 -21 10 -17 7 2 20 -1 30 -5 32 -13 80 -12 93 3 21 25 53 32 99 21 42
-11 43 -11 71 22 15 19 28 40 28 47 0 19 19 16 27 -3 4 -11 -3 -23 -20 -36
-15 -11 -27 -26 -27 -34 0 -19 19 -18 26 1 4 8 10 15 15 15 4 0 6 -7 3 -15 -4
-9 0 -15 9 -15 20 0 25 16 21 70 -1 26 -9 49 -18 56 -13 9 -14 17 -7 35 10 24
10 24 10 -3 1 -16 4 -28 9 -28 9 0 8 77 -1 86 -3 3 -3 12 -1 19 4 9 -13 11
-73 8 -43 -2 -82 -9 -87 -14 -14 -13 -56 -11 -61 4 -3 7 -30 13 -72 15 -44 2
-73 8 -85 19 -14 13 -30 14 -80 9 -121 -14 -169 -16 -163 -6 7 12 95 26 188
29 15 1 17 7 12 35 -4 19 -8 68 -9 110 -1 41 -5 78 -9 82 -4 4 -7 2 -7 -4 0
-7 -4 -12 -10 -12 -17 0 -11 42 8 46 14 4 17 16 15 77 -1 40 -3 105 -4 145 -1
69 -2 73 -30 88 -37 19 -39 37 -2 23 32 -12 38 -4 47 57 3 24 15 63 27 87 12
23 21 44 20 47 -5 12 34 11 56 -1 22 -12 27 -11 39 6 8 10 14 14 14 8 0 -6 15
-16 33 -22 36 -12 117 -11 117 1 0 5 -7 8 -15 8 -8 0 -15 5 -15 10 0 6 9 10
20 10 13 0 20 -7 20 -19 0 -23 36 -25 45 -3 3 10 9 10 25 2 11 -6 25 -8 30 -5
18 11 11 35 -12 45 -23 9 -23 9 -2 9 30 1 38 38 12 52 -19 10 -19 11 -2 23 13
10 18 28 18 68 1 52 0 55 -24 56 -186 8 -250 8 -250 3z m-125 -41 c3 -5 2 -10
-4 -10 -5 0 -13 5 -16 10 -3 6 -2 10 4 10 5 0 13 -4 16 -10z m-97 -17 c10 -10
29 -25 42 -33 67 -43 89 -80 29 -47 -78 42 -118 74 -107 85 15 15 15 15 36 -5z
m-96 -108 c-4 -49 -27 -79 -38 -51 -4 11 1 22 12 31 18 13 18 14 2 20 -17 7
-24 35 -12 47 3 3 13 4 22 1 14 -3 16 -13 14 -48z m483 4 c-8 -12 -35 -12 -35
0 0 11 22 20 33 14 4 -2 5 -9 2 -14z m-410 -7 c-3 -3 -11 0 -18 7 -9 10 -8 11
6 5 10 -3 15 -9 12 -12z m340 -12 c3 -5 -1 -10 -10 -10 -9 0 -13 5 -10 10 3 6
8 10 10 10 2 0 7 -4 10 -10z m-195 -36 c0 -8 -5 -12 -10 -9 -6 4 -8 11 -5 16
9 14 15 11 15 -7z m-226 -50 c4 -10 2 -14 -6 -11 -7 2 -20 1 -29 -4 -12 -6
-18 -3 -22 11 -4 16 0 20 23 20 16 0 30 -7 34 -16z m131 7 c10 -17 -12 -21
-25 -6 -10 12 -10 15 3 15 9 0 18 -4 22 -9z m55 -21 c0 -5 -6 -10 -14 -10 -8
0 -18 5 -21 10 -3 6 3 10 14 10 12 0 21 -4 21 -10z m-155 -20 c3 -5 1 -10 -4
-10 -6 0 -11 5 -11 10 0 6 2 10 4 10 3 0 8 -4 11 -10z m109 -15 c11 -8 17 -17
14 -21 -7 -6 -48 17 -48 28 0 12 13 9 34 -7z m-176 -7 c7 -7 12 -15 12 -20 0
-12 -28 2 -34 18 -7 17 6 18 22 2z m141 -22 c8 -1 17 -9 19 -17 3 -11 2 -11
-7 1 -9 12 -11 12 -16 -2 -6 -16 -9 -16 -31 -1 -30 19 -31 38 -1 29 12 -4 29
-8 36 -10z m-104 -63 c7 -37 0 -41 -26 -17 -14 13 -16 20 -7 40 13 29 23 22
33 -23z m-6 -85 c28 -12 50 -29 51 -35 0 -18 -10 -16 -55 12 -22 13 -47 25
-56 25 -8 0 -24 7 -35 15 -18 15 -17 15 13 11 18 -2 55 -15 82 -28z m141 -91
c0 -4 -9 -3 -20 3 -11 6 -20 15 -20 20 0 6 9 5 20 -2 11 -7 20 -16 20 -21z
m-94 -38 c3 -5 -3 -12 -13 -15 -10 -3 -26 -10 -35 -15 -24 -13 -25 -12 -25 14
0 19 5 23 33 24 19 1 37 -3 40 -8z m-26 -49 c0 -5 -4 -10 -10 -10 -5 0 -10 5
-10 10 0 6 5 10 10 10 6 0 10 -4 10 -10z m10 -24 c0 -3 -4 -8 -10 -11 -5 -3
-10 -1 -10 4 0 6 5 11 10 11 6 0 10 -2 10 -4z m-50 -198 c0 -15 -45 10 -48 27
-4 16 -2 16 22 -1 14 -11 26 -22 26 -26z m0 -132 c0 -3 -4 -8 -10 -11 -5 -3
-10 -1 -10 4 0 6 5 11 10 11 6 0 10 -2 10 -4z m-80 -51 c18 -54 8 -60 -17 -10
-16 34 -18 45 -8 45 7 0 19 -16 25 -35z m305 -15 c3 -5 1 -10 -4 -10 -6 0 -11
5 -11 10 0 6 2 10 4 10 3 0 8 -4 11 -10z m335 -10 c0 -5 -5 -10 -11 -10 -5 0
-7 5 -4 10 3 6 8 10 11 10 2 0 4 -4 4 -10z m-557 -25 c-7 -21 -13 -19 -13 6 0
11 4 18 10 14 5 -3 7 -12 3 -20z m407 -16 c0 -5 -4 -9 -10 -9 -5 0 -10 7 -10
16 0 8 5 12 10 9 6 -3 10 -10 10 -16z m-398 -83 c-4 -26 -6 -28 -12 -11 -4 11
-6 27 -4 35 1 8 3 22 4 30 1 11 3 10 9 -4 4 -10 5 -33 3 -50z m275 22 c-3 -8
-6 -5 -6 6 -1 11 2 17 5 13 3 -3 4 -12 1 -19z m53 -49 c0 -9 -15 -13 -40 -9
-22 3 -26 10 -11 19 15 10 51 3 51 -10z m44 3 c3 -5 -1 -9 -9 -9 -8 0 -15 4
-15 9 0 4 4 8 9 8 6 0 12 -4 15 -8z m-54 -62 c0 -5 -9 -10 -20 -10 -11 0 -20
5 -20 10 0 6 9 10 20 10 11 0 20 -4 20 -10z m35 -10 c3 -5 -1 -10 -10 -10 -9
0 -13 5 -10 10 3 6 8 10 10 10 2 0 7 -4 10 -10z"/>
<path d="M1560 3161 c-8 -6 -17 -8 -21 -5 -4 2 -10 0 -14 -6 -3 -5 -1 -10 6
-10 8 0 8 -4 -2 -16 -9 -11 -22 -14 -45 -10 -28 6 -33 3 -45 -26 -7 -17 -12
-45 -11 -62 1 -17 -7 -78 -18 -136 -12 -58 -21 -113 -21 -122 0 -11 -8 -18
-20 -18 -10 0 -19 -6 -20 -12 -1 -13 -2 -24 -14 -88 -4 -19 -9 -45 -11 -58
-18 -97 -20 -228 -3 -248 9 -11 9 -18 1 -26 -8 -8 -13 -8 -16 3 -24 75 -24 76
-26 49 -1 -14 -1 -31 0 -39 1 -8 -3 -17 -10 -21 -13 -8 -59 -228 -60 -283 0
-23 -4 -36 -10 -32 -5 3 -10 0 -11 -7 0 -7 -3 -22 -6 -33 -3 -11 -7 -40 -10
-64 -4 -35 -2 -42 8 -35 7 4 25 8 39 8 21 1 25 6 24 28 -1 15 3 25 7 22 5 -3
9 -16 9 -30 0 -15 6 -24 15 -24 14 0 20 12 16 33 -8 50 -10 109 -2 97 8 -13
19 -77 20 -117 1 -22 21 -14 31 12 6 17 4 40 -7 77 -21 65 -18 57 -27 93 -4
17 -10 38 -13 49 -3 12 -1 16 6 12 6 -4 11 -15 11 -25 0 -10 10 -33 23 -52 12
-19 24 -50 25 -69 2 -19 7 -51 11 -70 7 -36 12 -38 76 -31 20 1 19 40 -1 48
-20 7 58 55 83 51 15 -3 20 10 31 77 7 44 17 84 22 89 5 5 20 9 35 9 l26 0 -6
66 c-6 63 -5 67 15 67 11 0 20 -4 20 -8 0 -4 -6 -8 -13 -8 -10 0 -12 -12 -7
-50 4 -28 11 -55 16 -60 5 -5 31 -10 58 -12 l50 -3 12 -50 c7 -27 16 -76 18
-108 7 -66 14 -86 27 -66 4 7 12 10 16 5 4 -4 0 -13 -10 -20 -20 -15 -23 -66
-4 -67 92 -6 155 -5 171 3 13 7 21 6 27 -3 6 -11 13 -11 27 -3 13 8 24 9 36 2
25 -14 65 5 61 29 -2 10 -4 23 -4 29 -1 7 -11 14 -23 17 -18 5 -19 8 -9 21 8
9 17 13 22 10 19 -11 26 41 14 100 -54 267 -87 391 -109 407 -4 4 -4 9 2 13
12 7 5 43 -15 71 -7 11 -13 36 -13 57 0 20 -4 40 -10 43 -5 3 -10 11 -10 16 0
6 5 7 10 4 6 -3 10 -1 10 5 0 6 -6 13 -14 16 -8 3 -12 12 -9 20 3 8 -2 21 -12
28 -17 12 -17 13 1 20 18 8 18 9 -3 17 -16 6 -23 17 -23 34 0 25 -2 26 -31 20
-22 -5 -29 -4 -25 4 4 6 13 11 21 11 7 0 15 6 18 13 8 23 35 -11 29 -38 -3
-19 0 -25 13 -25 12 0 15 6 11 20 -3 11 -9 29 -12 40 -3 11 -11 20 -18 20 -14
0 -56 87 -56 114 0 9 7 16 16 16 9 0 14 -6 12 -12 -6 -18 17 -91 30 -96 8 -2
8 6 1 30 -19 58 -29 102 -35 137 -2 19 -9 40 -14 47 -6 6 -8 18 -5 26 3 8 -1
21 -10 28 -20 17 -177 23 -187 7 -5 -8 -14 -7 -33 3 -23 12 -28 12 -35 0 -9
-13 -10 -13 -10 0 0 11 -3 11 -12 2 -7 -7 -21 -12 -31 -12 -16 0 -17 3 -7 15
10 12 10 15 -1 15 -8 0 -21 -4 -29 -9z m130 -41 c0 -5 -4 -10 -10 -10 -5 0
-10 5 -10 10 0 6 5 10 10 10 6 0 10 -4 10 -10z m-70 -20 c0 -5 -4 -10 -9 -10
-6 0 -13 5 -16 10 -3 6 1 10 9 10 9 0 16 -4 16 -10z m-70 -86 c0 -8 -4 -12
-10 -9 -5 3 -10 10 -10 16 0 5 5 9 10 9 6 0 10 -7 10 -16z m344 -25 c-4 -6
-11 -6 -20 2 -21 17 -17 31 6 19 11 -6 18 -15 14 -21z m-34 -59 c0 -5 -5 -10
-11 -10 -5 0 -7 5 -4 10 3 6 8 10 11 10 2 0 4 -4 4 -10z m-358 -72 c-20 -21
-23 -21 -38 -6 -11 11 -12 18 -5 22 6 4 11 2 11 -3 0 -6 5 -11 10 -11 6 0 10
12 10 27 0 26 1 26 17 10 16 -16 16 -18 -5 -39z m192 -83 c4 -44 9 -89 11
-100 2 -11 7 -49 10 -85 3 -36 8 -74 10 -85 2 -11 4 -28 4 -38 1 -10 5 -16 9
-13 10 6 52 -21 52 -34 0 -5 -6 -7 -14 -4 -8 3 -30 -2 -50 -11 -27 -13 -39
-14 -55 -5 -17 8 -21 8 -21 -4 0 -8 6 -17 13 -19 9 -4 8 -8 -3 -16 -24 -17
-33 3 -34 76 -1 62 10 207 20 257 2 11 6 45 9 76 3 30 7 64 10 75 2 11 4 27 5
35 3 34 18 -30 24 -105z m-144 56 c16 -30 12 -36 -10 -16 -21 19 -26 35 -10
35 5 0 14 -9 20 -19z m360 -61 c0 -5 -3 -10 -7 -10 -5 0 -19 -3 -33 -6 l-25
-5 25 15 c30 18 40 20 40 6z m-80 -40 c0 -5 -7 -10 -16 -10 -8 0 -12 5 -9 10
3 6 10 10 16 10 5 0 9 -4 9 -10z m-445 -10 c-3 -5 -11 -10 -16 -10 -6 0 -7 5
-4 10 3 6 11 10 16 10 6 0 7 -4 4 -10z m-24 -53 c-10 -9 -11 -8 -5 6 3 10 9
15 12 12 3 -3 0 -11 -7 -18z m249 -57 c0 -5 -5 -10 -11 -10 -5 0 -7 5 -4 10 3
6 8 10 11 10 2 0 4 -4 4 -10z m256 -35 c-1 -19 -4 -35 -8 -35 -5 0 -8 5 -8 10
0 6 -7 10 -15 10 -20 0 -19 20 3 36 26 20 29 17 28 -21z m-506 -40 c0 -8 -4
-16 -9 -19 -5 -3 -8 5 -7 18 1 25 16 26 16 1z m108 -13 c6 -18 -15 -14 -22 4
-4 10 -1 14 6 12 6 -2 14 -10 16 -16z m19 -74 c-3 -7 -5 -2 -5 12 0 14 2 19 5
13 2 -7 2 -19 0 -25z m313 7 c11 -13 10 -14 -4 -9 -9 3 -16 10 -16 15 0 13 6
11 20 -6z m41 -59 c16 -17 10 -28 -6 -12 -8 8 -14 25 -14 38 1 20 2 21 6 3 3
-11 9 -24 14 -29z m-61 -6 c0 -5 -2 -10 -4 -10 -3 0 -8 5 -11 10 -3 6 -1 10 4
10 6 0 11 -4 11 -10z m-185 -10 c3 -5 1 -10 -4 -10 -6 0 -11 5 -11 10 0 6 2
10 4 10 3 0 8 -4 11 -10z m235 -25 c7 -9 8 -15 2 -15 -5 0 -12 7 -16 15 -3 8
-4 15 -2 15 2 0 9 -7 16 -15z m-340 -5 c0 -5 -5 -10 -11 -10 -5 0 -7 5 -4 10
3 6 8 10 11 10 2 0 4 -4 4 -10z m210 6 c0 -3 -4 -8 -10 -11 -5 -3 -10 -1 -10
4 0 6 5 11 10 11 6 0 10 -2 10 -4z m-50 -43 c0 -21 -3 -24 -9 -14 -5 8 -7 20
-4 28 8 21 13 15 13 -14z m-313 -28 c0 -8 -6 -16 -14 -19 -7 -3 -13 1 -13 8 0
8 6 17 13 19 6 3 12 6 13 6 0 1 1 -6 1 -14z m703 5 c-20 -13 -33 -13 -25 0 3
6 14 10 23 10 15 0 15 -2 2 -10z m-107 -24 c-33 -27 -142 -90 -148 -85 -5 6
148 108 163 109 8 0 1 -11 -15 -24z m67 20 c0 -3 -4 -8 -10 -11 -5 -3 -10 -1
-10 4 0 6 5 11 10 11 6 0 10 -2 10 -4z m-645 -84 c12 -57 13 -119 4 -134 -6
-8 -9 6 -9 37 -1 28 -7 68 -15 90 -18 50 -18 56 -1 49 8 -3 17 -22 21 -42z
m130 28 c3 -5 1 -10 -4 -10 -6 0 -11 5 -11 10 0 6 2 10 4 10 3 0 8 -4 11 -10z
m458 -35 c-22 -17 -30 -11 -13 10 7 8 17 12 22 9 5 -3 1 -12 -9 -19z m-466
-17 c-3 -7 -5 -2 -5 12 0 14 2 19 5 13 2 -7 2 -19 0 -25z m610 26 c-3 -3 -12
-4 -19 -1 -8 3 -5 6 6 6 11 1 17 -2 13 -5z m-610 -141 c-2 -21 -4 -6 -4 32 0
39 2 55 4 38 2 -18 2 -50 0 -70z m360 35 c-3 -7 -5 -2 -5 12 0 14 2 19 5 13 2
-7 2 -19 0 -25z m43 11 c0 -6 -4 -7 -10 -4 -5 3 -10 11 -10 16 0 6 5 7 10 4 6
-3 10 -11 10 -16z m76 8 c4 -4 -2 -7 -14 -7 -12 0 -22 4 -22 9 0 10 26 9 36
-2z m-710 -78 c3 -24 7 -54 9 -67 3 -18 1 -21 -8 -13 -7 5 -14 38 -15 72 -3
70 5 75 14 8z m722 17 c0 -28 -3 -33 -19 -29 -23 6 -25 19 -4 27 8 3 12 12 9
21 -3 8 -2 15 4 15 5 0 10 -15 10 -34z m-124 -12 c10 -38 0 -41 -19 -5 -13 26
-13 31 -1 31 7 0 17 -12 20 -26z m141 -64 c3 -5 1 -10 -4 -10 -6 0 -11 5 -11
10 0 6 2 10 4 10 3 0 8 -4 11 -10z m-765 -30 c0 -5 -4 -10 -10 -10 -5 0 -10 5
-10 10 0 6 5 10 10 10 6 0 10 -4 10 -10z m907 4 c-3 -3 -12 -4 -19 -1 -8 3 -5
6 6 6 11 1 17 -2 13 -5z m-117 -58 c0 -3 -4 -8 -10 -11 -5 -3 -10 -1 -10 4 0
6 5 11 10 11 6 0 10 -2 10 -4z m-60 -56 c0 -5 -7 -7 -15 -4 -8 4 -15 8 -15 10
0 2 7 4 15 4 8 0 15 -4 15 -10z"/>
<path d="M4530 3161 c-8 -6 -17 -8 -21 -5 -4 2 -10 0 -14 -6 -3 -5 -1 -10 6
-10 8 0 8 -4 -1 -15 -8 -10 -25 -15 -44 -13 -26 3 -33 -2 -47 -32 -9 -19 -14
-40 -12 -47 7 -18 -7 -124 -15 -119 -4 2 -7 -11 -6 -31 2 -43 -14 -105 -26
-98 -5 3 -12 1 -15 -5 -4 -6 -1 -9 6 -8 6 2 14 -3 16 -9 3 -8 -4 -13 -16 -13
-12 0 -21 -2 -21 -5 0 -3 -7 -49 -16 -103 -9 -53 -18 -117 -20 -142 -2 -25 -6
-61 -7 -80 -2 -19 3 -48 10 -63 8 -15 11 -32 8 -37 -10 -16 -25 -1 -25 25 0
13 -4 27 -10 30 -6 4 -10 -6 -10 -22 0 -16 -5 -34 -10 -39 -15 -15 -62 -253
-58 -291 2 -17 0 -31 -5 -30 -14 3 -35 -62 -36 -108 -1 -29 2 -36 10 -28 7 7
25 9 42 6 24 -5 29 -3 25 8 -3 8 -2 23 3 34 6 16 8 14 8 -12 1 -21 6 -33 15
-33 18 0 28 27 18 48 -5 9 -9 37 -10 62 -2 60 13 25 23 -53 6 -50 9 -55 25
-47 21 11 19 39 -12 144 -26 89 -29 108 -17 101 5 -4 9 -13 9 -20 0 -20 32
-85 42 -85 4 0 8 -17 8 -37 0 -21 5 -55 10 -75 10 -35 13 -37 43 -34 18 3 35
5 38 5 4 1 9 10 12 21 3 13 -1 21 -15 26 -18 5 -15 9 21 31 23 13 45 22 49 19
18 -11 30 13 43 89 l14 80 34 3 33 3 -5 65 c-4 37 -2 64 4 64 5 0 9 -15 10
-32 2 -86 10 -98 69 -98 32 0 52 -5 54 -12 2 -7 8 -29 15 -48 6 -19 14 -63 16
-97 5 -76 13 -93 32 -68 11 16 13 16 13 3 0 -8 -7 -21 -15 -28 -18 -15 -20
-46 -3 -56 19 -12 161 -14 174 -3 9 7 20 6 35 -3 17 -10 23 -10 26 -1 3 9 10
10 22 4 35 -19 73 -1 67 32 -3 12 -5 25 -5 28 -1 4 -11 10 -23 13 -23 6 -23 6
-3 21 11 8 25 19 31 24 14 12 9 61 -16 156 -10 39 -21 89 -24 112 -8 60 -36
166 -47 178 -5 5 -9 17 -9 27 0 10 -5 18 -11 18 -6 0 -7 5 -2 13 12 20 9 40
-9 66 -10 13 -18 41 -18 62 0 21 -5 41 -11 45 -8 4 -7 9 2 15 11 6 11 11 1 21
-6 6 -12 18 -12 26 0 8 -8 21 -17 28 -17 13 -17 13 0 14 23 0 22 16 -3 23 -14
3 -20 14 -20 31 0 24 -3 26 -31 21 -19 -4 -28 -2 -24 5 3 5 12 10 20 10 7 0
16 6 19 13 8 19 35 -20 29 -43 -4 -14 0 -20 12 -20 12 0 15 6 11 20 -3 11 -9
29 -12 40 -3 11 -11 20 -18 20 -20 0 -50 78 -47 124 1 22 14 14 17 -12 6 -41
27 -101 34 -97 4 3 -6 55 -23 117 -16 62 -29 121 -29 130 0 9 -6 22 -13 28
-20 17 -177 23 -186 8 -6 -9 -14 -9 -34 2 -23 12 -28 12 -35 0 -9 -13 -10 -13
-10 0 0 11 -3 11 -12 2 -7 -7 -21 -12 -31 -12 -16 0 -17 3 -7 15 10 12 10 15
-1 15 -8 0 -21 -4 -29 -9z m130 -41 c0 -5 -2 -10 -4 -10 -3 0 -8 5 -11 10 -3
6 -1 10 4 10 6 0 11 -4 11 -10z m-70 -20 c0 -5 -4 -10 -9 -10 -6 0 -13 5 -16
10 -3 6 1 10 9 10 9 0 16 -4 16 -10z m-70 -85 c0 -8 -4 -15 -8 -15 -5 0 -9 7
-9 15 0 8 4 15 9 15 4 0 8 -7 8 -15z m350 -20 c0 -8 -4 -15 -9 -15 -5 0 -14 7
-21 15 -10 13 -9 15 9 15 12 0 21 -6 21 -15z m-40 -65 c0 -5 -4 -10 -10 -10
-5 0 -10 5 -10 10 0 6 5 10 10 10 6 0 10 -4 10 -10z m-354 -69 c-14 -16 -23
-18 -37 -10 -11 5 -19 14 -19 20 0 6 7 6 20 -1 18 -9 20 -8 20 17 0 26 1 26
17 10 16 -15 16 -18 -1 -36z m182 6 c-2 -12 12 -168 17 -199 2 -9 6 -43 10
-75 10 -99 17 -142 24 -141 3 1 16 -3 29 -10 24 -14 31 -35 8 -26 -8 3 -30 -2
-50 -11 -27 -13 -39 -14 -55 -5 -17 9 -21 8 -21 -4 0 -8 5 -18 10 -21 11 -7 4
-25 -10 -25 -17 0 -32 83 -25 139 3 31 8 75 11 99 2 23 6 61 8 85 3 23 8 69
12 102 5 33 9 68 10 78 1 9 2 22 3 28 0 5 6 7 11 4 6 -4 10 -12 8 -18z m-138
-32 c7 -9 10 -18 7 -22 -8 -7 -37 15 -37 28 0 14 16 11 30 -6z m360 -65 c0 -5
-4 -10 -9 -10 -5 0 -18 -3 -28 -7 -16 -6 -16 -5 -4 10 15 19 41 23 41 7z m-80
-40 c0 -5 -7 -10 -16 -10 -8 0 -12 5 -9 10 3 6 10 10 16 10 5 0 9 -4 9 -10z
m-450 -20 c-8 -5 -17 -7 -19 -4 -3 3 1 9 9 14 8 5 17 7 19 4 3 -3 -1 -9 -9
-14z m0 -34 c0 -2 -7 -7 -16 -10 -8 -3 -12 -2 -9 4 6 10 25 14 25 6z m240 -60
c0 -2 -7 -7 -16 -10 -8 -3 -12 -2 -9 4 6 10 25 14 25 6z m246 -48 c1 -35 -1
-39 -11 -25 -7 9 -17 17 -24 17 -16 0 -14 17 7 38 22 24 26 20 28 -30z m-506
-33 c0 -8 -4 -16 -9 -19 -5 -3 -8 5 -7 18 1 25 16 26 16 1z m110 -10 c20 -24
6 -28 -15 -5 -10 11 -13 20 -8 20 6 0 16 -7 23 -15z m340 -81 c0 -2 -9 0 -20
6 -11 6 -20 13 -20 16 0 2 9 0 20 -6 11 -6 20 -13 20 -16z m21 -47 c-8 -8 -11
-3 -11 19 1 25 2 27 11 11 8 -14 8 -22 0 -30z m-51 -7 c0 -5 -2 -10 -4 -10 -3
0 -8 5 -11 10 -3 6 -1 10 4 10 6 0 11 -4 11 -10z m-180 -10 c0 -5 -2 -10 -4
-10 -3 0 -8 5 -11 10 -3 6 -1 10 4 10 6 0 11 -4 11 -10z m-113 -32 c-3 -7 -5
-2 -5 12 0 14 2 19 5 13 2 -7 2 -19 0 -25z m273 18 c0 -3 -4 -8 -10 -11 -5 -3
-10 -1 -10 4 0 6 5 11 10 11 6 0 10 -2 10 -4z m75 -5 c3 -5 1 -12 -5 -16 -5
-3 -10 1 -10 9 0 18 6 21 15 7z m-135 -5 c0 -3 -4 -8 -10 -11 -5 -3 -10 -1
-10 4 0 6 5 11 10 11 6 0 10 -2 10 -4z m-50 -43 c0 -21 -3 -24 -9 -14 -5 8 -7
20 -4 28 8 21 13 15 13 -14z m-314 -40 c-6 -15 -9 -15 -16 -3 -6 9 -5 17 3 22
16 10 21 2 13 -19z m714 23 c0 -2 -7 -6 -15 -10 -8 -3 -15 -1 -15 4 0 6 7 10
15 10 8 0 15 -2 15 -4z m-131 -41 c-24 -19 -48 -35 -52 -35 -5 0 -22 -9 -39
-21 -16 -12 -32 -19 -34 -16 -7 7 137 106 155 106 8 1 -6 -15 -30 -34z m81 31
c0 -3 -4 -8 -10 -11 -5 -3 -10 -1 -10 4 0 6 5 11 10 11 6 0 10 -2 10 -4z
m-648 -72 c14 -49 19 -104 9 -104 -5 0 -12 21 -16 48 -4 26 -10 52 -13 57 -11
18 -11 36 1 32 6 -2 15 -17 19 -33z m133 -5 c-6 -46 -13 -46 -11 0 0 21 4 37
8 35 4 -3 5 -18 3 -35z m475 3 c0 -4 -9 -13 -20 -20 -22 -13 -27 -3 -8 16 14
14 28 16 28 4z m130 -6 c0 -3 -4 -8 -10 -11 -5 -3 -10 -1 -10 4 0 6 5 11 10
11 6 0 10 -2 10 -4z m-613 -138 c-2 -18 -4 -4 -4 32 0 36 2 50 4 33 2 -18 2
-48 0 -65z m360 30 c-3 -7 -5 -2 -5 12 0 14 2 19 5 13 2 -7 2 -19 0 -25z m107
12 c-22 -9 -29 -6 -20 9 4 6 14 7 23 4 15 -6 14 -7 -3 -13z m-54 6 c0 -11 -19
-15 -25 -6 -3 5 1 10 9 10 9 0 16 -2 16 -4z m-523 -31 c0 -8 -4 -15 -9 -15 -4
0 -8 7 -8 15 0 8 4 15 8 15 5 0 9 -7 9 -15z m-119 -44 c2 -28 5 -60 7 -71 3
-18 2 -20 -10 -10 -9 8 -13 23 -10 40 3 16 1 40 -4 53 -9 23 -6 37 8 37 3 0 7
-22 9 -49z m722 24 c0 -36 -3 -40 -20 -37 -24 6 -25 11 -5 26 10 7 15 18 11
24 -4 7 -2 12 3 12 6 0 11 -11 11 -25z m-126 -21 c10 -38 1 -40 -17 -5 -12 25
-13 31 -2 31 7 0 16 -12 19 -26z m140 -70 c3 -8 2 -12 -4 -9 -6 3 -10 10 -10
16 0 14 7 11 14 -7z m-764 -24 c0 -5 -4 -10 -10 -10 -5 0 -10 5 -10 10 0 6 5
10 10 10 6 0 10 -4 10 -10z m790 -54 c0 -3 -4 -8 -10 -11 -5 -3 -10 -1 -10 4
0 6 5 11 10 11 6 0 10 -2 10 -4z m-65 -56 c3 -6 -1 -7 -9 -4 -18 7 -21 14 -7
14 6 0 13 -4 16 -10z"/>
<path d="M6500 3161 c-8 -6 -17 -8 -21 -5 -4 2 -10 0 -14 -6 -3 -5 -1 -10 6
-10 8 0 8 -5 -2 -16 -9 -11 -23 -14 -45 -11 -28 5 -34 2 -44 -22 -6 -15 -13
-56 -15 -92 -2 -35 -6 -75 -9 -89 -18 -81 -27 -127 -27 -142 0 -11 -8 -18 -18
-18 -15 0 -21 -14 -31 -77 -7 -43 -14 -87 -17 -98 -2 -11 -5 -39 -5 -62 0 -24
-3 -45 -8 -48 -10 -6 -2 -92 11 -118 8 -13 8 -22 0 -30 -8 -8 -13 -2 -17 21
-9 45 -24 50 -24 8 0 -19 -5 -36 -10 -38 -13 -4 -62 -244 -57 -280 2 -17 -1
-28 -9 -28 -12 0 -21 -32 -31 -109 -4 -35 -3 -42 8 -35 8 4 27 7 43 5 21 -2
27 1 24 11 -3 7 -2 22 3 33 6 16 8 14 8 -12 1 -21 6 -33 15 -33 20 0 26 24 15
62 -5 18 -9 46 -8 63 l1 30 9 -30 c5 -16 13 -51 17 -77 5 -36 10 -45 20 -39
18 11 21 39 10 76 -14 46 -39 138 -44 159 -6 31 11 5 25 -39 8 -22 20 -44 27
-50 6 -5 14 -35 17 -65 8 -82 13 -91 55 -86 45 6 58 26 32 47 -19 16 -19 17
10 29 17 7 30 17 30 22 0 6 12 8 26 5 30 -5 30 -5 47 93 12 75 12 75 46 78
l33 3 -5 64 c-5 56 -4 64 14 68 10 3 19 1 19 -4 0 -5 -7 -9 -15 -9 -8 0 -12
-6 -10 -12 2 -7 7 -30 10 -52 3 -21 8 -42 11 -47 3 -5 30 -9 60 -9 30 0 53 -3
52 -7 -2 -10 12 -75 19 -86 3 -5 7 -35 8 -68 4 -72 13 -89 32 -64 11 16 13 17
13 2 0 -9 -8 -20 -17 -26 -14 -7 -16 -15 -8 -36 10 -26 14 -28 88 -32 53 -2
84 0 94 8 10 9 17 9 21 2 8 -12 42 -13 42 -1 0 5 10 3 23 -3 12 -7 24 -11 27
-10 3 2 12 7 21 12 14 7 17 27 10 60 0 4 -11 10 -23 13 -22 6 -22 7 -4 21 10
8 23 16 27 17 17 6 15 53 -3 132 -26 107 -27 115 -34 156 -12 77 -51 199 -68
211 -4 4 -4 9 2 13 12 7 5 42 -16 73 -8 13 -12 36 -10 53 3 18 -1 35 -9 42
-11 9 -11 13 -1 19 10 7 10 11 0 21 -6 6 -12 18 -12 26 0 8 -8 21 -17 28 -17
13 -17 13 0 14 23 0 22 16 -3 23 -14 3 -20 14 -20 32 0 24 -3 26 -30 21 -17
-2 -28 0 -24 5 3 5 11 9 19 9 7 0 16 6 19 13 8 19 35 -20 29 -43 -4 -14 0 -20
12 -20 12 0 15 6 11 20 -3 11 -9 29 -12 40 -3 11 -11 20 -18 20 -14 0 -40 50
-50 98 -6 26 -5 32 9 32 9 0 15 -6 13 -12 -6 -18 17 -91 30 -96 8 -2 8 6 1 30
-6 18 -13 44 -16 58 -2 14 -7 32 -10 40 -3 8 -7 25 -9 37 -1 13 -6 33 -10 45
-4 13 -7 28 -6 34 1 6 -4 17 -12 23 -19 16 -177 25 -186 11 -5 -8 -15 -7 -34
1 -23 11 -29 10 -37 -2 -8 -12 -9 -12 -9 1 0 11 -3 11 -12 2 -7 -7 -21 -12
-31 -12 -16 0 -17 3 -7 15 10 12 10 15 -1 15 -8 0 -21 -4 -29 -9z m130 -41 c0
-5 -4 -10 -10 -10 -5 0 -10 5 -10 10 0 6 5 10 10 10 6 0 10 -4 10 -10z m-75
-20 c3 -5 2 -10 -4 -10 -5 0 -13 5 -16 10 -3 6 -2 10 4 10 5 0 13 -4 16 -10z
m-65 -86 c0 -8 -4 -12 -10 -9 -5 3 -10 10 -10 16 0 5 5 9 10 9 6 0 10 -7 10
-16z m290 -4 c0 -5 -2 -10 -4 -10 -3 0 -8 5 -11 10 -3 6 -1 10 4 10 6 0 11 -4
11 -10z m60 -9 c0 -18 -18 -21 -30 -6 -10 13 -9 15 9 15 11 0 21 -4 21 -9z
m-40 -71 c0 -5 -5 -10 -11 -10 -5 0 -7 5 -4 10 3 6 8 10 11 10 2 0 4 -4 4 -10z
m-358 -72 c-21 -21 -23 -21 -39 -5 -9 9 -13 20 -9 24 5 5 11 2 13 -4 8 -23 23
-14 23 14 0 26 1 26 17 10 16 -16 16 -18 -5 -39z m184 9 c1 -7 4 -46 8 -87 4
-41 9 -84 11 -95 2 -11 7 -49 10 -85 8 -95 16 -150 24 -148 11 4 51 -22 51
-33 0 -6 -5 -7 -11 -3 -6 3 -28 -2 -50 -11 -30 -14 -42 -15 -53 -6 -11 9 -16
9 -21 0 -4 -6 -1 -15 6 -20 12 -8 12 -11 -1 -19 -24 -15 -33 5 -34 77 -1 61
10 194 18 240 2 10 7 50 12 88 4 39 8 75 9 80 1 6 3 19 3 29 2 20 15 15 18 -7z
m-136 -32 c7 -9 10 -18 7 -22 -8 -7 -37 15 -37 28 0 14 16 11 30 -6z m360 -65
c0 -5 -3 -10 -7 -10 -5 0 -19 -3 -33 -6 l-25 -5 25 15 c30 18 40 20 40 6z
m-80 -40 c0 -5 -7 -10 -16 -10 -8 0 -12 5 -9 10 3 6 10 10 16 10 5 0 9 -4 9
-10z m-440 -4 c0 -2 -7 -9 -15 -16 -13 -11 -14 -10 -9 4 5 14 24 23 24 12z
m-29 -59 c-10 -9 -11 -8 -5 6 3 10 9 15 12 12 3 -3 0 -11 -7 -18z m259 -51 c0
-3 -4 -8 -10 -11 -5 -3 -10 -1 -10 4 0 6 5 11 10 11 6 0 10 -2 10 -4z m246
-47 c0 -34 -2 -38 -11 -25 -7 9 -17 16 -24 16 -17 0 -13 21 7 36 26 20 28 18
28 -27z m-506 -34 c0 -8 -4 -16 -9 -19 -5 -3 -8 5 -7 18 1 25 16 26 16 1z
m110 -15 c8 -16 8 -18 -4 -14 -17 6 -30 34 -16 34 5 0 14 -9 20 -20z m340 -76
c0 -2 -9 0 -20 6 -11 6 -20 13 -20 16 0 2 9 0 20 -6 11 -6 20 -13 20 -16z m24
-26 c1 -7 6 -20 11 -28 8 -13 7 -13 -8 -1 -9 7 -17 23 -17 34 0 22 10 18 14
-5z m-54 -28 c0 -5 -2 -10 -4 -10 -3 0 -8 5 -11 10 -3 6 -1 10 4 10 6 0 11 -4
11 -10z m-185 -10 c3 -5 1 -10 -4 -10 -6 0 -11 5 -11 10 0 6 2 10 4 10 3 0 8
-4 11 -10z m-108 -32 c-3 -7 -5 -2 -5 12 0 14 2 19 5 13 2 -7 2 -19 0 -25z
m340 -10 c-3 -7 -5 -2 -5 12 0 14 2 19 5 13 2 -7 2 -19 0 -25z m-127 18 c0 -3
-4 -8 -10 -11 -5 -3 -10 -1 -10 4 0 6 5 11 10 11 6 0 10 -2 10 -4z m-51 -43
c0 -25 -1 -25 -8 -8 -5 11 -7 23 -4 28 8 14 13 7 12 -20z m-313 -40 c-6 -15
-9 -15 -16 -3 -6 9 -5 17 3 22 16 10 21 2 13 -19z m704 17 c-20 -13 -33 -13
-25 0 3 6 14 10 23 10 15 0 15 -2 2 -10z m-107 -23 c-40 -33 -134 -89 -140
-83 -3 2 8 12 24 22 15 10 48 33 72 51 50 37 88 46 44 10z m-447 -33 c-3 -15
-8 -29 -11 -32 -3 -3 -3 5 -1 19 2 13 5 27 5 32 1 4 3 7 6 7 3 0 3 -12 1 -26z
m-130 -32 c11 -53 12 -119 3 -134 -5 -8 -9 8 -9 40 0 29 -7 69 -15 89 -19 44
-19 54 -1 47 8 -3 18 -22 22 -42z m244 8 c0 -5 -5 -10 -11 -10 -5 0 -7 5 -4
10 3 6 8 10 11 10 2 0 4 -4 4 -10z m347 -15 c-9 -8 -18 -11 -22 -6 -3 6 3 14
12 20 24 13 29 6 10 -14z m140 9 c-3 -3 -12 -4 -19 -1 -8 3 -5 6 6 6 11 1 17
-2 13 -5z m-200 -26 c-3 -8 -6 -5 -6 6 -1 11 2 17 5 13 3 -3 4 -12 1 -19z
m-405 -65 c-5 -83 -9 -90 -11 -20 0 37 2 67 7 67 4 0 6 -21 4 -47z m355 -15
c-3 -7 -5 -2 -5 12 0 14 2 19 5 13 2 -7 2 -19 0 -25z m43 11 c0 -6 -4 -7 -10
-4 -5 3 -10 11 -10 16 0 6 5 7 10 4 6 -3 10 -11 10 -16z m74 12 c3 -5 -2 -11
-12 -13 -11 -3 -19 0 -19 8 0 16 23 19 31 5z m18 -61 c3 -36 2 -39 -17 -34
-28 9 -31 14 -15 24 8 5 16 15 16 22 3 24 4 28 8 28 2 0 6 -18 8 -40z m-723
-31 c1 -28 4 -55 6 -60 3 -4 1 -10 -5 -14 -12 -7 -11 -10 -16 73 -2 34 0 61 5
58 4 -3 9 -28 10 -57z m595 15 c10 -38 0 -41 -19 -5 -13 26 -13 31 -1 31 7 0
17 -12 20 -26z m-624 -94 c0 -5 -2 -10 -4 -10 -3 0 -8 5 -11 10 -3 6 -1 10 4
10 6 0 11 -4 11 -10z m790 -54 c0 -3 -4 -8 -10 -11 -5 -3 -10 -1 -10 4 0 6 5
11 10 11 6 0 10 -2 10 -4z m-60 -56 c0 -5 -4 -10 -9 -10 -6 0 -13 5 -16 10 -3
6 1 10 9 10 9 0 16 -4 16 -10z"/>
<path d="M2306 3113 c-4 -4 32 -93 55 -135 6 -12 6 -18 -1 -18 -5 0 -10 -7
-10 -16 0 -18 -47 -67 -58 -60 -4 2 -7 -11 -8 -30 0 -18 3 -31 9 -27 5 3 4 -4
-2 -15 -9 -17 -8 -22 9 -27 11 -3 20 -11 20 -16 0 -6 -5 -7 -10 -4 -7 4 -10
-21 -9 -72 1 -44 -2 -86 -7 -94 -4 -8 -9 -49 -9 -92 0 -68 1 -76 13 -60 13 17
13 16 10 -7 -2 -14 -8 -24 -13 -23 -6 1 -10 -35 -10 -87 l0 -88 35 -6 c20 -3
50 -2 67 3 18 5 34 6 38 3 3 -3 23 -5 45 -4 23 2 40 -2 40 -8 0 -5 -9 -10 -19
-10 -11 0 -21 -5 -23 -11 -3 -9 -9 -9 -25 -1 -26 14 -84 5 -100 -16 -11 -14
-13 -13 -13 6 0 24 -22 30 -37 10 -10 -14 -12 -353 -2 -363 4 -3 13 1 22 9 13
14 16 14 28 0 9 -11 26 -14 72 -10 33 2 64 9 70 15 8 8 16 6 28 -5 11 -10 19
-12 24 -5 10 17 25 13 18 -5 -4 -12 -2 -15 8 -12 8 2 15 19 17 37 3 27 -1 34
-19 38 -18 5 -20 8 -7 17 17 13 20 97 4 109 -8 5 -8 9 0 15 16 10 13 224 -3
229 -8 3 -8 10 1 28 7 14 13 70 15 131 1 60 4 110 6 113 3 2 18 -25 34 -60 15
-35 51 -112 79 -171 28 -59 60 -128 72 -155 11 -26 27 -59 35 -73 16 -30 63
-46 72 -24 7 19 23 18 23 -2 0 -9 -9 -18 -19 -21 -23 -6 -32 -25 -22 -42 6 -9
14 -9 34 0 22 10 31 9 52 -5 32 -21 32 -38 0 -30 -15 4 -25 2 -25 -5 0 -10 21
-16 44 -12 13 3 36 -20 36 -36 0 -7 -6 -13 -12 -12 -45 6 -51 0 -45 -42 3 -22
8 -43 10 -46 7 -6 217 -4 227 2 8 5 13 115 5 115 -3 0 -17 -7 -31 -16 -19 -13
-24 -23 -20 -45 5 -33 -9 -37 -39 -11 -36 30 -59 77 -48 97 10 17 11 17 22 -3
12 -23 33 -30 28 -11 -1 6 3 13 10 16 6 2 13 -5 15 -16 2 -15 7 -18 17 -11 12
7 13 13 3 34 -9 21 -9 26 3 26 7 0 17 -9 20 -20 14 -45 23 -4 22 109 l0 120
-29 10 c-30 11 -38 31 -12 31 8 0 12 -5 8 -11 -4 -7 1 -10 12 -7 16 3 19 13
21 66 1 46 -3 65 -13 69 -8 3 -14 9 -14 14 0 4 6 6 14 3 11 -4 13 53 12 363
l-1 368 -145 0 -145 0 -1 -235 c-1 -129 -2 -291 -3 -360 -1 -69 0 -132 0 -140
1 -8 1 -26 1 -39 -2 -20 -4 -21 -17 -11 -8 7 -15 18 -15 25 0 7 -11 20 -25 29
-14 9 -25 22 -25 28 0 6 8 4 18 -5 24 -22 39 -22 21 1 -24 30 -40 62 -34 71 2
5 -2 14 -11 21 -10 9 -13 22 -9 41 4 16 1 38 -6 51 -7 13 -12 26 -11 30 1 4
-9 15 -23 24 -20 13 -23 19 -14 30 9 11 8 19 -5 32 -9 10 -16 23 -16 28 0 6
-9 20 -20 32 -14 14 -16 22 -8 22 8 1 5 7 -7 18 -11 9 -19 25 -17 34 2 9 -6
26 -17 37 -22 22 -47 29 -35 9 4 -7 3 -8 -5 -4 -6 4 -9 11 -7 15 3 4 -6 14
-19 21 -14 7 -25 22 -25 32 0 10 -4 18 -9 18 -6 0 -3 16 5 36 14 33 14 37 -3
50 -10 7 -26 14 -36 14 -9 0 -25 12 -35 28 -16 25 -22 27 -89 28 -39 1 -74 0
-77 -3z m92 -74 c-5 -16 -48 28 -48 50 0 11 7 8 26 -11 15 -14 24 -32 22 -39z
m72 1 c0 -5 -2 -10 -4 -10 -3 0 -8 5 -11 10 -3 6 -1 10 4 10 6 0 11 -4 11 -10z
m487 -52 c-3 -8 -6 -5 -6 6 -1 11 2 17 5 13 3 -3 4 -12 1 -19z m67 -2 c-3 -13
-1 -41 5 -62 17 -65 22 -106 12 -100 -5 3 -12 26 -15 51 -4 25 -10 45 -14 45
-12 0 -11 74 1 82 17 11 18 10 11 -16z m-53 -88 c0 -18 2 -43 3 -55 2 -21 -12
-34 -15 -15 -6 29 -4 102 3 102 4 0 8 -15 9 -32z m36 -40 c-3 -8 -6 -5 -6 6
-1 11 2 17 5 13 3 -3 4 -12 1 -19z m-377 -29 c0 -6 -4 -7 -10 -4 -5 3 -10 11
-10 16 0 6 5 7 10 4 6 -3 10 -11 10 -16z m-280 -21 c0 -36 -9 -33 -16 6 -2 14
0 26 6 26 5 0 10 -14 10 -32z m32 -53 c-5 -44 -14 -50 -29 -19 -6 13 -7 21 -1
18 5 -3 12 3 15 15 9 34 19 24 15 -14z m238 12 c9 -3 3 -6 -12 -6 -20 -1 -28
4 -28 15 0 12 4 14 13 7 6 -6 19 -13 27 -16z m433 -10 c-3 -5 -10 -4 -15 1 -6
6 -7 16 -3 22 6 9 9 9 16 -1 4 -7 5 -17 2 -22z m-78 2 c-5 -25 -13 -35 -21
-27 -5 6 13 48 21 48 2 0 2 -10 0 -21z m71 -66 c-5 -50 -21 -53 -23 -3 -1 28
3 40 12 40 10 0 13 -11 11 -37z m51 5 c-3 -8 -6 -5 -6 6 -1 11 2 17 5 13 3 -3
4 -12 1 -19z m-105 -60 c-9 -9 -12 -1 -11 33 l1 44 11 -33 c7 -24 7 -36 -1
-44z m-612 6 c0 -19 -4 -33 -8 -30 -4 2 -7 17 -6 33 3 33 3 33 9 33 3 0 5 -16
5 -36z m99 9 c0 -25 -1 -25 -8 -8 -5 11 -7 23 -4 28 8 14 13 7 12 -20z m218
-8 c0 -6 -3 -9 -8 -7 -5 1 -9 -3 -9 -8 0 -7 -6 -7 -20 0 -11 6 -20 14 -20 18
0 11 55 8 57 -3z m408 5 c3 -5 1 -10 -4 -10 -6 0 -11 5 -11 10 0 6 2 10 4 10
3 0 8 -4 11 -10z m-46 -67 c14 -54 20 -113 11 -118 -4 -3 -11 7 -15 23 -8 29
-15 132 -9 132 2 0 8 -17 13 -37z m-569 17 c0 -5 -2 -10 -4 -10 -3 0 -8 5 -11
10 -3 6 -1 10 4 10 6 0 11 -4 11 -10z m518 -58 c7 -31 17 -79 23 -107 6 -27
17 -55 25 -61 13 -10 13 -12 -1 -17 -8 -4 -12 -13 -9 -22 3 -8 10 -13 14 -10
10 6 25 -82 21 -124 -2 -28 -14 -1 -17 40 -3 23 -8 47 -14 53 -5 7 -12 34 -15
61 -9 69 -24 123 -35 127 -5 2 -12 32 -15 67 -6 76 4 73 23 -7z m-284 -1 c-7
-7 -34 21 -28 31 3 5 12 1 19 -9 7 -10 12 -20 9 -22z m-347 -3 c-3 -8 -6 -5
-6 6 -1 11 2 17 5 13 3 -3 4 -12 1 -19z m783 -77 c-5 -11 -27 -25 -47 -32 -21
-6 -42 -17 -46 -23 -6 -7 -7 -6 -5 4 3 11 69 54 106 69 1 0 -2 -8 -8 -18z
m-780 -31 c0 -5 -5 -10 -11 -10 -5 0 -7 5 -4 10 3 6 8 10 11 10 2 0 4 -4 4
-10z m153 -11 c4 -16 3 -18 -9 -8 -16 13 -19 29 -5 29 5 0 11 -9 14 -21z m167
-4 c0 -8 -2 -15 -4 -15 -2 0 -6 7 -10 15 -3 8 -1 15 4 15 6 0 10 -7 10 -15z
m304 -90 c3 -43 2 -64 -3 -55 -12 19 -22 146 -11 134 4 -5 10 -40 14 -79z
m126 75 c0 -5 -4 -10 -10 -10 -5 0 -10 5 -10 10 0 6 5 10 10 10 6 0 10 -4 10
-10z m-340 -37 c0 -13 -3 -13 -15 -3 -8 7 -15 19 -15 27 0 13 3 13 15 3 8 -7
15 -19 15 -27z m-41 -9 c31 -40 13 -52 -20 -14 -33 38 -34 40 -15 40 8 0 24
-12 35 -26z m-372 -46 c-3 -8 -6 -5 -6 6 -1 11 2 17 5 13 3 -3 4 -12 1 -19z
m750 -10 c-3 -8 -6 -5 -6 6 -1 11 2 17 5 13 3 -3 4 -12 1 -19z m-247 -29 c0
-5 -4 -9 -10 -9 -5 0 -10 7 -10 16 0 8 5 12 10 9 6 -3 10 -10 10 -16z m290
-24 c0 -5 -5 -3 -10 5 -5 8 -10 20 -10 25 0 6 5 3 10 -5 5 -8 10 -19 10 -25z
m-810 5 c0 -5 -2 -10 -4 -10 -3 0 -8 5 -11 10 -3 6 -1 10 4 10 6 0 11 -4 11
-10z m610 0 c0 -11 -59 -44 -66 -37 -3 2 10 14 28 26 38 24 38 24 38 11z m-94
-70 c-5 -64 -12 -84 -26 -75 -5 3 -13 -3 -19 -12 -10 -17 -10 -17 -11 0 0 11
9 32 20 47 11 16 21 45 22 64 1 20 5 36 10 36 5 0 7 -27 4 -60z m162 28 c-1
-13 4 -48 10 -78 19 -93 21 -110 13 -110 -4 0 -13 18 -20 40 -16 54 -25 170
-13 170 6 0 10 -10 10 -22z m-528 -28 c0 -5 -2 -10 -4 -10 -3 0 -8 5 -11 10
-3 6 -1 10 4 10 6 0 11 -4 11 -10z m627 -22 c-3 -8 -6 -5 -6 6 -1 11 2 17 5
13 3 -3 4 -12 1 -19z m-747 -13 c0 -14 -2 -25 -4 -25 -2 0 -6 11 -8 25 -3 14
-1 25 3 25 5 0 9 -11 9 -25z m698 -48 c5 -34 5 -54 0 -49 -9 9 -24 120 -15
112 3 -3 10 -32 15 -63z m-573 26 c-2 -10 -4 -22 -4 -28 -1 -5 -5 -3 -11 5 -5
9 -5 19 2 27 14 17 17 16 13 -4z m-72 -43 c-10 -17 -19 -26 -21 -20 -4 10 25
50 35 50 2 0 -4 -14 -14 -30z m707 -21 c0 -10 -4 -19 -10 -19 -5 0 -10 12 -10
26 0 14 4 23 10 19 6 -3 10 -15 10 -26z m-50 -54 c0 -8 -2 -15 -4 -15 -2 0 -6
7 -10 15 -3 8 -1 15 4 15 6 0 10 -7 10 -15z m-50 -15 c0 -5 -4 -10 -10 -10 -5
0 -10 5 -10 10 0 6 5 10 10 10 6 0 10 -4 10 -10z m-610 -20 c0 -5 -5 -10 -11
-10 -5 0 -7 5 -4 10 3 6 8 10 11 10 2 0 4 -4 4 -10z m-50 -46 c0 -8 -5 -12
-10 -9 -6 4 -8 11 -5 16 9 14 15 11 15 -7z m60 -20 c0 -8 -4 -12 -10 -9 -5 3
-10 13 -10 21 0 8 5 12 10 9 6 -3 10 -13 10 -21z m720 -30 c0 -8 -4 -12 -10
-9 -5 3 -10 13 -10 21 0 8 5 12 10 9 6 -3 10 -13 10 -21z"/>
<path d="M8057 3112 c-3 -6 -2 -71 2 -129 1 -17 7 -23 26 -23 14 0 25 5 25 11
0 6 5 7 13 2 6 -4 17 -8 22 -9 6 -1 22 -5 36 -9 16 -4 30 -2 33 4 4 6 14 11
22 11 8 0 12 -4 9 -10 -4 -6 6 -10 22 -10 22 0 25 -2 13 -10 -8 -5 -42 -7 -75
-4 -33 3 -67 5 -75 5 -8 -1 -28 -1 -45 -1 l-30 -1 0 -108 c0 -60 3 -107 7
-105 4 3 5 11 2 18 -3 8 0 17 7 21 12 8 12 4 -9 -76 -6 -22 -6 -43 0 -53 6
-10 5 -16 -2 -16 -7 0 -7 -7 2 -22 7 -13 13 -43 13 -68 1 -25 5 -51 9 -59 6
-10 5 -12 -2 -7 -7 4 -12 1 -12 -8 0 -8 5 -16 12 -18 7 -3 8 -9 3 -18 -6 -10
-11 -9 -21 5 -12 16 -13 15 -11 -11 1 -16 7 -32 12 -36 7 -5 7 -8 0 -8 -5 0
-10 -26 -11 -59 -1 -56 0 -58 24 -58 14 0 31 -8 37 -16 8 -12 15 -13 22 -6 21
21 34 0 17 -26 -8 -13 -14 -29 -13 -37 4 -35 -2 -82 -10 -70 -6 11 -10 10 -15
-3 -4 -12 0 -18 14 -22 21 -6 21 -6 -1 -29 -12 -13 -17 -24 -11 -24 7 0 12 -6
12 -13 0 -6 14 -25 30 -40 17 -16 30 -33 30 -38 0 -5 7 -9 15 -9 8 0 15 5 15
10 0 6 4 10 8 10 5 0 8 -10 8 -22 -1 -17 9 -25 50 -39 28 -10 78 -20 110 -23
33 -3 67 -8 77 -12 9 -3 17 -2 17 3 0 5 15 8 33 6 l32 -4 -27 16 c-16 9 -28
17 -28 19 0 10 41 -8 56 -25 13 -15 25 -18 58 -12 119 18 206 105 251 250 23
73 24 90 25 395 0 279 -1 318 -15 318 -8 0 -15 4 -15 10 0 5 6 9 13 7 8 -1 13
17 15 61 3 65 -2 71 -39 52 -15 -8 -19 -7 -19 3 0 8 13 17 29 20 29 6 29 7 30
82 1 58 -2 75 -13 75 -8 0 -18 -9 -21 -20 -8 -27 -25 -26 -18 1 5 17 2 20 -13
17 -14 -2 -21 -16 -28 -58 -7 -45 -10 -51 -17 -33 -4 12 -4 37 2 55 11 40 11
38 0 38 -5 0 -15 -26 -22 -57 -7 -32 -17 -64 -22 -71 -7 -9 -6 -17 1 -24 14
-14 16 -28 3 -28 -21 0 -19 74 5 156 6 21 3 22 -80 22 l-86 -1 2 -73 c1 -67 3
-73 25 -78 12 -4 23 -11 23 -16 0 -6 -11 -8 -25 -4 l-25 6 -1 -193 c-1 -107 0
-198 1 -204 2 -5 2 -19 1 -30 -1 -11 -3 -81 -4 -155 -2 -74 -8 -154 -14 -178
-6 -23 -8 -44 -4 -46 4 -3 38 -6 75 -7 83 -3 116 -8 116 -20 0 -8 -179 -2
-189 7 -2 2 -17 -4 -34 -12 -16 -9 -40 -14 -53 -11 -13 2 -21 0 -18 -4 3 -5
-6 -9 -21 -9 -22 0 -24 3 -16 19 8 14 7 20 -3 24 -17 7 -46 90 -46 135 0 23
-4 33 -12 29 -47 -19 -48 -19 -43 -5 3 7 15 18 28 23 20 9 22 18 25 98 2 51
-1 86 -6 83 -5 -3 -7 7 -4 22 9 43 11 222 3 222 -4 0 -8 7 -8 15 0 8 4 12 7
10 4 -3 8 7 8 20 0 14 -6 25 -12 25 -8 0 -8 2 0 8 13 8 14 109 1 129 -4 6 -4
14 0 16 5 3 8 38 8 79 l0 73 -152 2 c-84 1 -154 -2 -156 -5z m169 -33 c19 -22
19 -22 -3 -10 -13 6 -23 16 -23 21 0 15 5 12 26 -11z m74 -30 c0 -5 -4 -9 -10
-9 -5 0 -10 7 -10 16 0 8 5 12 10 9 6 -3 10 -10 10 -16z m-130 -30 c0 -10 -4
-19 -10 -19 -5 0 -10 12 -10 26 0 14 4 23 10 19 6 -3 10 -15 10 -26z m616
-121 c-3 -46 -6 -84 -6 -84 0 -1 -9 -4 -20 -7 -14 -4 -20 0 -20 12 0 9 9 42
20 74 11 31 20 63 20 72 0 8 3 15 6 15 4 0 4 -37 0 -82z m86 10 c-7 -7 -12 -8
-12 -2 0 14 12 26 19 19 2 -3 -1 -11 -7 -17z m-167 -60 c-4 -35 -11 -67 -15
-72 -6 -5 -7 8 -4 33 3 23 6 55 7 72 1 16 6 29 10 29 4 0 5 -28 2 -62z m-350
42 c3 -5 2 -10 -4 -10 -5 0 -13 5 -16 10 -3 6 -2 10 4 10 5 0 13 -4 16 -10z
m-195 -25 c0 -8 -2 -15 -4 -15 -2 0 -6 7 -10 15 -3 8 -1 15 4 15 6 0 10 -7 10
-15z m579 -112 c-2 -21 -7 -41 -11 -44 -5 -3 -11 -16 -13 -30 -3 -13 -8 -39
-11 -57 -11 -56 -23 -45 -18 15 3 32 12 65 20 74 8 8 14 23 14 31 0 19 10 48
17 48 2 0 3 -17 2 -37z m95 22 c-4 -8 -10 -15 -15 -15 -4 0 -6 7 -3 15 4 8 10
15 15 15 4 0 6 -7 3 -15z m-514 -9 c0 -8 -4 -18 -10 -21 -5 -3 -10 3 -10 14 0
12 5 21 10 21 6 0 10 -6 10 -14z m485 -6 c22 -11 45 -20 52 -20 7 0 13 -4 13
-10 0 -5 0 -13 0 -17 0 -5 -13 -9 -30 -10 -17 -2 -29 1 -25 6 3 5 18 8 33 6
l27 -4 -30 14 c-16 8 -35 14 -41 15 -10 0 -52 40 -43 40 3 0 22 -9 44 -20z
m-21 -72 c-3 -18 -9 -44 -14 -58 -5 -14 -11 -34 -13 -45 -2 -11 -4 7 -5 40 0
59 10 95 27 95 5 0 7 -15 5 -32z m-628 -128 c2 -16 -1 -30 -6 -30 -6 0 -10 17
-10 37 0 42 11 38 16 -7z m101 -20 c-4 -27 -17 -38 -17 -13 0 18 8 33 17 33 1
0 2 -9 0 -20z m439 -9 c-2 -44 -16 -50 -16 -8 0 21 4 37 9 37 4 0 8 -13 7 -29z
m114 19 c0 -5 -2 -10 -4 -10 -3 0 -8 5 -11 10 -3 6 -1 10 4 10 6 0 11 -4 11
-10z m-54 -45 c0 -26 -4 -35 -16 -35 -12 0 -15 8 -12 39 5 49 27 46 28 -4z
m54 -15 c0 -5 -4 -10 -10 -10 -5 0 -10 5 -10 10 0 6 5 10 10 10 6 0 10 -4 10
-10z m-651 -60 c0 -24 0 -24 -11 -5 -6 11 -16 23 -22 27 -8 5 -7 8 2 8 6 0 12
8 13 18 1 27 17 -17 18 -48z m512 33 c0 -5 2 -16 4 -26 3 -15 1 -16 -11 -6
-16 13 -19 39 -4 39 6 0 10 -3 11 -7z m89 -27 c0 -8 -4 -18 -10 -21 -5 -3 -10
3 -10 14 0 12 5 21 10 21 6 0 10 -6 10 -14z m-630 -26 c0 -5 -2 -10 -4 -10 -3
0 -8 5 -11 10 -3 6 -1 10 4 10 6 0 11 -4 11 -10z m220 -27 c0 -10 -4 -24 -8
-31 -6 -8 -9 -2 -9 18 0 16 4 30 9 30 4 0 8 -8 8 -17z m-226 -8 c-4 -8 -10
-15 -15 -15 -4 0 -6 7 -3 15 4 8 10 15 15 15 4 0 6 -7 3 -15z m619 -36 c-6 -6
-7 3 -4 23 4 28 6 29 9 9 2 -13 0 -27 -5 -32z m-642 -32 c5 -19 3 -27 -6 -27
-7 0 -15 14 -17 30 -6 38 13 35 23 -3z m94 24 c-6 -4 -23 -11 -40 -15 -28 -6
-29 -5 -11 9 21 16 67 22 51 6z m25 -72 c-7 -11 -9 -27 -6 -34 3 -8 1 -17 -4
-20 -10 -6 -24 50 -15 65 3 5 13 10 21 10 12 0 13 -4 4 -21z m94 -54 c3 -10
-3 -17 -20 -21 -33 -8 -44 4 -20 22 25 18 32 18 40 -1z m-124 -30 c-7 -8 -17
-15 -22 -15 -6 0 -5 7 2 15 7 8 17 15 22 15 6 0 5 -7 -2 -15z m180 9 c0 -11
-34 -33 -50 -33 -10 -1 -6 6 10 19 26 20 40 25 40 14z m-133 -45 c-9 -6 -17
-16 -17 -23 0 -8 -11 -13 -27 -12 -16 1 -27 4 -25 9 1 4 2 12 2 17 0 7 6 7 19
1 14 -8 23 -6 36 9 10 11 21 18 24 14 3 -3 -2 -10 -12 -15z m533 11 c0 -5 -4
-10 -10 -10 -5 0 -10 5 -10 10 0 6 5 10 10 10 6 0 10 -4 10 -10z m-375 -20
c-3 -5 -10 -10 -16 -10 -5 0 -9 5 -9 10 0 6 7 10 16 10 8 0 12 -4 9 -10z m448
-23 c-6 -12 -16 -33 -22 -47 -11 -23 -11 -22 -7 13 5 38 24 73 34 62 3 -3 1
-15 -5 -28z m-503 8 c0 -8 -7 -15 -16 -15 -14 0 -14 3 -4 15 7 8 14 15 16 15
2 0 4 -7 4 -15z m201 -38 c-10 -9 -11 -8 -5 6 3 10 9 15 12 12 3 -3 0 -11 -7
-18z m-311 -67 c0 -41 -6 -51 -26 -43 -20 7 -18 43 2 43 15 0 15 2 0 25 -9 14
-14 31 -10 37 12 19 34 -22 34 -62z m204 49 c-3 -5 -10 -7 -15 -3 -5 3 -7 10
-3 15 3 5 10 7 15 3 5 -3 7 -10 3 -15z m326 1 c0 -5 -4 -10 -10 -10 -5 0 -10
5 -10 10 0 6 5 10 10 10 6 0 10 -4 10 -10z m-456 -44 c-10 -8 -21 -12 -24 -10
-5 6 21 24 34 24 6 0 1 -6 -10 -14z m446 -42 c0 -25 -4 -43 -8 -40 -5 3 -7 20
-6 38 2 42 3 48 9 48 3 0 5 -21 5 -46z m-330 19 c0 -5 -24 -24 -53 -43 -28
-19 -55 -39 -58 -44 -4 -5 -12 -5 -19 -1 -16 10 15 42 70 71 49 25 60 28 60
17z m-10 -103 c0 -5 -4 -10 -10 -10 -5 0 -10 5 -10 10 0 6 5 10 10 10 6 0 10
-4 10 -10z"/>
<path d="M8755 2847 c-4 -10 -5 -21 -1 -24 10 -10 18 4 13 24 -4 17 -4 17 -12
0z"/>
<path d="M4 2580 c0 -474 1 -500 18 -500 22 0 22 0 3 -36 -18 -36 -14 -40 26
-20 63 31 113 9 75 -33 -12 -13 -14 -21 -7 -26 6 -3 11 1 11 9 0 12 11 16 45
16 45 0 54 -7 35 -26 -8 -8 -6 -15 5 -24 19 -16 19 -34 1 -49 -11 -10 -16 -8
-20 7 -7 22 -59 49 -64 34 -2 -6 -20 -8 -40 -5 -32 4 -40 2 -48 -17 -9 -21
-11 -21 -26 -7 -15 15 -16 14 -16 -17 0 -31 3 -34 37 -40 76 -12 151 -7 172
13 11 10 28 17 38 14 29 -7 37 38 34 177 -2 69 -4 135 -3 148 0 15 -6 22 -20
22 -11 0 -20 -5 -20 -12 0 -9 -3 -9 -12 0 -7 7 -25 12 -42 12 -16 0 -27 3 -24
6 8 8 36 12 81 13 38 1 38 2 32 31 -8 36 -9 240 -1 247 10 10 114 -8 132 -23
11 -9 13 -13 7 -9 -24 12 -93 16 -93 5 0 -20 72 -189 85 -200 8 -6 11 -18 8
-26 -3 -9 4 -29 16 -45 12 -16 19 -34 16 -39 -3 -5 2 -17 12 -27 10 -10 18
-27 18 -38 0 -17 8 -20 50 -23 46 -2 49 -1 31 13 -19 15 -19 15 2 15 25 0 38
35 27 77 -5 23 -4 25 10 13 13 -11 18 -10 30 6 8 10 15 29 15 41 0 12 5 25 10
28 13 8 13 25 -1 25 -5 0 -8 -4 -4 -9 3 -6 -10 -7 -32 -4 -47 7 -55 13 -19 13
47 0 84 27 107 77 12 26 22 58 22 70 0 13 3 23 7 23 4 0 10 8 13 18 2 9 8 24
11 33 5 10 -1 20 -16 27 -20 11 -16 11 24 7 43 -6 47 -4 42 12 -6 15 -4 15 9
-2 9 -11 17 -27 17 -36 0 -18 27 -45 36 -37 2 3 1 24 -5 47 -12 54 3 53 17 -1
23 -90 23 -92 3 -74 -24 22 -45 21 -36 -1 10 -22 14 -65 7 -77 -7 -13 -22 16
-22 47 0 15 -4 27 -9 27 -15 0 -22 -33 -12 -65 4 -17 5 -39 0 -50 -4 -11 -8
-35 -8 -54 -1 -33 0 -34 14 -15 14 19 14 18 15 -3 0 -14 -6 -23 -15 -23 -17 0
-16 4 -19 -75 -1 -33 1 -69 4 -80 4 -10 2 -40 -4 -65 -7 -25 -11 -74 -10 -110
2 -105 1 -101 35 -98 34 3 64 28 33 28 -23 0 -7 17 20 22 14 2 21 -4 26 -22 6
-24 10 -25 75 -25 l69 0 1 485 c1 267 -1 490 -3 497 -6 21 -53 25 -73 7 -16
-15 -19 -15 -19 -2 0 17 20 28 49 28 10 0 23 11 29 25 14 29 12 30 -35 10 -38
-16 -84 -20 -82 -7 6 34 -2 43 -33 40 -24 -2 -32 -7 -29 -18 2 -8 5 -33 7 -55
1 -27 1 -30 -3 -10 -3 17 -10 36 -16 44 -16 19 -16 131 -1 131 6 0 17 -6 23
-14 14 -17 49 -27 56 -16 3 4 22 6 44 3 33 -5 39 -2 44 16 6 25 27 28 28 4 1
-10 5 -4 8 12 4 17 4 34 1 38 -7 8 -232 16 -262 9 -16 -4 -33 -41 -40 -87 -2
-11 -8 -24 -15 -30 -6 -5 -20 -35 -31 -65 -10 -30 -27 -72 -36 -92 -18 -43
-19 -42 64 -39 27 2 32 -1 20 -9 -8 -6 -31 -10 -50 -9 -19 0 -40 1 -46 0 -11
-1 -21 -23 -80 -178 -26 -68 -29 -72 -45 -57 -9 8 -20 26 -23 39 -3 13 -18 28
-33 33 -18 7 -22 11 -10 11 23 1 21 13 -17 106 -31 75 -35 81 -72 92 -36 11
-32 18 9 14 22 -3 22 27 0 37 -11 4 -18 19 -19 37 -1 17 -17 72 -35 122 l-34
93 -43 0 c-24 0 -41 -4 -38 -9 3 -5 15 -7 26 -4 23 6 27 -15 9 -48 -9 -18 -12
-19 -27 -6 -9 8 -26 17 -37 19 -12 2 -21 13 -23 26 -3 20 -8 22 -76 22 l-73 0
1 -500z m46 449 c0 -16 -4 -29 -9 -29 -10 0 -19 40 -13 58 7 21 22 2 22 -29z
m80 -13 c0 -3 -4 -8 -10 -11 -5 -3 -10 -1 -10 4 0 6 5 11 10 11 6 0 10 -2 10
-4z m-80 -36 c0 -5 -5 -10 -11 -10 -5 0 -7 5 -4 10 3 6 8 10 11 10 2 0 4 -4 4
-10z m178 -15 c-3 -3 -9 2 -12 12 -6 14 -5 15 5 6 7 -7 10 -15 7 -18z m-48
-46 c0 -16 7 -19 40 -19 22 0 40 -4 40 -8 0 -8 -96 -9 -104 -1 -2 2 -2 16 1
31 6 31 23 28 23 -3z m710 -19 c0 -5 -2 -10 -4 -10 -3 0 -8 5 -11 10 -3 6 -1
10 4 10 6 0 11 -4 11 -10z m16 -76 c-11 -7 -22 -11 -25 -8 -3 3 3 12 13 20 11
7 22 11 25 8 3 -3 -3 -12 -13 -20z m99 -34 c-10 -11 -25 -20 -34 -20 -12 0 -9
6 9 20 33 26 48 26 25 0z m-645 -40 c0 -5 -14 -7 -32 -3 -46 8 -48 13 -5 13
21 0 37 -4 37 -10z m427 -22 c-3 -8 -6 -5 -6 6 -1 11 2 17 5 13 3 -3 4 -12 1
-19z m83 12 c0 -5 -4 -10 -10 -10 -5 0 -10 5 -10 10 0 6 5 10 10 10 6 0 10 -4
10 -10z m-516 -25 c3 -8 1 -15 -4 -15 -6 0 -10 7 -10 15 0 8 2 15 4 15 2 0 6
-7 10 -15z m516 -25 c0 -5 -7 -10 -15 -10 -8 0 -15 5 -15 10 0 6 7 10 15 10 8
0 15 -4 15 -10z m-520 -19 c0 -6 -4 -13 -10 -16 -5 -3 -10 -17 -10 -31 0 -14
-4 -22 -10 -19 -9 6 -11 51 -3 68 6 10 33 9 33 -2z m461 2 c5 -41 4 -63 -3
-63 -4 0 -8 6 -9 13 0 6 -2 22 -5 35 -2 12 1 22 6 22 6 0 10 -3 11 -7z m-84
-9 c-3 -3 -12 -4 -19 -1 -8 3 -5 6 6 6 11 1 17 -2 13 -5z m-467 -42 c0 -7 -4
-10 -10 -7 -5 3 -10 16 -10 28 0 18 2 19 10 7 5 -8 10 -21 10 -28z m517 16
c-3 -8 -6 -5 -6 6 -1 11 2 17 5 13 3 -3 4 -12 1 -19z m-651 -15 c-10 -10 -19
5 -10 18 6 11 8 11 12 0 2 -7 1 -15 -2 -18z m39 17 c3 -5 1 -10 -4 -10 -6 0
-11 5 -11 10 0 6 2 10 4 10 3 0 8 -4 11 -10z m489 -5 c-10 -8 -23 -14 -29 -14
-5 0 -1 6 9 14 11 8 24 15 30 15 5 0 1 -7 -10 -15z m226 -5 c0 -5 -2 -10 -4
-10 -3 0 -8 5 -11 10 -3 6 -1 10 4 10 6 0 11 -4 11 -10z m-200 -14 c0 -3 -4
-8 -10 -11 -5 -3 -10 -1 -10 4 0 6 5 11 10 11 6 0 10 -2 10 -4z m-270 -10 c0
-2 -9 -6 -20 -9 -11 -3 -18 -1 -14 4 5 9 34 13 34 5z m-140 -26 c0 -5 -5 -10
-11 -10 -5 0 -7 5 -4 10 3 6 8 10 11 10 2 0 4 -4 4 -10z m727 -25 c6 -19 8
-35 5 -35 -16 1 -31 17 -37 43 -11 42 19 35 32 -8z m-312 15 c3 -5 -1 -10 -10
-10 -9 0 -13 5 -10 10 3 6 8 10 10 10 2 0 7 -4 10 -10z m-536 -45 l0 -20 -9
20 c-5 11 -9 27 -9 35 -1 13 0 13 9 0 5 -8 9 -24 9 -35z m246 35 l30 -8 -30
-2 c-82 -5 -99 -4 -102 8 -5 14 51 15 102 2z m545 -26 c0 -8 -4 -14 -10 -14
-5 0 -10 9 -10 21 0 11 5 17 10 14 6 -3 10 -13 10 -21z m-341 -15 c-16 -10
-23 -4 -14 10 3 6 11 8 17 5 6 -4 5 -9 -3 -15z m77 -14 c-26 -19 -42 -19 -26
0 7 8 20 15 29 15 13 -1 13 -3 -3 -15z m324 -23 c0 -15 -2 -15 -10 -2 -13 20
-13 33 0 25 6 -3 10 -14 10 -23z m-940 -67 c0 -8 -2 -15 -4 -15 -2 0 -6 7 -10
15 -3 8 -1 15 4 15 6 0 10 -7 10 -15z m110 -21 c0 -8 -5 -12 -10 -9 -6 4 -8
11 -5 16 9 14 15 11 15 -7z m480 6 c0 -5 -4 -10 -10 -10 -5 0 -10 5 -10 10 0
6 5 10 10 10 6 0 10 -4 10 -10z m-520 -31 c0 -11 -4 -17 -10 -14 -5 3 -10 15
-10 26 0 11 5 17 10 14 6 -3 10 -15 10 -26z m-50 -20 c0 -37 -15 -37 -28 0 -8
22 -7 31 1 34 19 7 27 -2 27 -34z m350 31 c0 -5 -5 -10 -11 -10 -5 0 -7 5 -4
10 3 6 8 10 11 10 2 0 4 -4 4 -10z m154 -6 c20 -8 20 -20 0 -28 -21 -8 -34 1
-27 19 6 17 6 17 27 9z m307 -97 c-1 -12 -15 -9 -19 4 -3 6 1 10 8 8 6 -3 11
-8 11 -12z m44 3 c3 -5 2 -10 -4 -10 -5 0 -13 5 -16 10 -3 6 -2 10 4 10 5 0
13 -4 16 -10z m-309 -9 c-5 -8 -56 -3 -56 5 0 2 14 4 31 4 16 0 28 -4 25 -9z
m234 -51 c0 -5 -2 -10 -4 -10 -3 0 -8 5 -11 10 -3 6 -1 10 4 10 6 0 11 -4 11
-10z m19 -150 c5 -19 12 -43 16 -52 4 -10 3 -18 -3 -18 -5 0 -8 -18 -7 -40 l2
-40 -18 22 c-22 24 -23 42 -8 87 9 25 8 39 -5 71 -8 22 -13 47 -9 57 7 18 8
17 32 -87z m-800 62 c-7 -3 -22 -11 -31 -20 -22 -19 -24 -5 -2 19 9 10 23 15
32 11 13 -5 14 -6 1 -10z m151 -32 c0 -5 -5 -10 -11 -10 -5 0 -7 5 -4 10 3 6
8 10 11 10 2 0 4 -4 4 -10z m-132 -12 c-6 -18 -28 -21 -28 -4 0 9 7 16 16 16
9 0 14 -5 12 -12z m72 4 c0 -9 -40 -35 -46 -29 -6 6 25 37 37 37 5 0 9 -3 9
-8z m10 -76 c0 -3 -4 -8 -10 -11 -5 -3 -10 -1 -10 4 0 6 5 11 10 11 6 0 10 -2
10 -4z m830 -76 c0 -5 -5 -10 -11 -10 -5 0 -7 5 -4 10 3 6 8 10 11 10 2 0 4
-4 4 -10z m10 -61 c0 -16 -4 -29 -10 -29 -5 0 -10 16 -10 36 0 21 4 33 10 29
6 -3 10 -19 10 -36z m-85 21 c3 -5 -1 -10 -10 -10 -9 0 -13 5 -10 10 3 6 8 10
10 10 2 0 7 -4 10 -10z"/>
<path d="M7410 3021 c0 -49 4 -65 20 -78 11 -10 20 -24 20 -31 0 -9 7 -12 19
-9 14 3 21 -2 25 -16 3 -12 3 -23 1 -26 -3 -2 -5 1 -5 7 0 7 -5 12 -11 12 -6
0 -9 -7 -5 -15 3 -8 2 -14 -2 -14 -25 4 -32 -4 -32 -39 0 -26 7 -45 20 -57 12
-10 18 -25 15 -33 -3 -8 0 -12 7 -10 15 5 21 105 7 114 -6 3 -13 -3 -16 -15
-3 -11 -9 -18 -14 -15 -17 10 -9 23 22 39 23 12 34 13 44 5 10 -8 14 -7 17 2
4 11 8 11 20 0 19 -15 31 -2 22 22 -7 18 14 86 26 86 5 0 7 -7 4 -15 -4 -8 -1
-15 5 -15 6 0 11 -4 11 -10 0 -5 -9 -10 -19 -10 -16 0 -18 -5 -14 -32 2 -18
12 -38 21 -45 35 -25 40 -32 53 -77 7 -25 17 -46 21 -46 4 0 8 -10 8 -22 0
-40 13 -49 68 -47 29 2 55 0 59 -4 3 -4 2 -7 -4 -7 -5 0 -23 -11 -39 -25 -16
-14 -36 -25 -43 -25 -12 0 -12 -3 -3 -12 7 -7 12 -22 12 -35 0 -28 11 -29 35
-3 10 11 24 20 30 20 7 0 18 7 25 15 7 8 17 15 22 15 12 0 -33 -50 -45 -50 -5
0 -28 -16 -52 -36 -30 -24 -42 -41 -40 -55 5 -24 -4 -49 -16 -49 -5 0 -9 9 -9
19 0 26 -15 34 -30 16 -14 -17 -36 -9 -22 8 5 7 6 21 1 32 -5 14 -8 15 -8 5
-1 -9 -10 -16 -20 -16 -19 0 -19 1 0 28 11 15 26 25 33 22 19 -7 28 10 19 34
-8 19 -9 19 -43 3 -21 -9 -37 -26 -41 -41 -5 -21 -7 -22 -14 -7 -4 9 -13 17
-19 17 -12 0 -96 72 -96 82 0 3 9 15 20 28 11 13 18 26 15 29 -4 3 -9 1 -13
-4 -4 -6 -17 -16 -29 -22 -18 -10 -21 -10 -18 0 6 17 -21 51 -34 42 -6 -3 -11
-1 -11 4 0 6 -6 11 -14 11 -12 0 -26 20 -26 37 0 2 10 4 23 3 108 -9 107 2 -5
121 -16 17 -25 35 -21 44 7 20 28 13 27 -8 -2 -15 1 -15 27 0 33 20 34 22 15
49 -12 16 -18 17 -35 7 -16 -10 -20 -9 -25 3 -3 9 -11 12 -17 8 -8 -5 -9 -3
-4 5 5 8 11 9 17 3 5 -5 18 -7 29 -5 14 4 19 14 19 44 0 21 -4 49 -10 64 -9
24 -13 25 -85 24 -67 -1 -74 -3 -63 -17 30 -37 54 -57 66 -54 11 3 11 -1 2
-19 -12 -21 -13 -20 -56 27 l-43 49 0 -607 0 -608 140 0 139 0 1 113 c1 255 5
357 14 366 6 5 36 12 68 15 49 4 60 2 81 -17 33 -30 47 -94 48 -214 1 -64 5
-103 12 -103 7 0 6 -4 -1 -11 -11 -11 1 -64 28 -121 l12 -28 128 0 127 0 -18
38 c-10 20 -21 51 -24 68 -4 18 -16 40 -27 50 -20 18 -20 18 -14 -9 6 -21 4
-27 -8 -27 -9 0 -18 -8 -20 -17 -4 -14 -5 -13 -6 3 -1 22 -20 35 -53 39 -10 1
-18 -2 -18 -6 0 -7 -35 -19 -48 -16 -4 1 -7 7 -7 14 0 6 -4 15 -8 19 -13 13
-7 33 18 60 20 21 25 23 26 10 2 -29 4 -34 12 -42 4 -4 7 5 7 19 0 24 4 27 33
28 17 0 26 3 20 6 -22 8 -14 23 12 23 25 0 29 -6 27 -48 -1 -19 2 -21 18 -12
25 13 33 27 20 35 -6 4 -7 13 -2 23 5 9 7 31 6 47 -1 17 -2 56 -3 87 -1 50 -3
57 -18 52 -17 -5 -17 -5 -1 9 36 29 -8 110 -83 151 l-34 19 36 11 c37 11 85
59 111 111 19 36 23 228 7 290 -17 64 -67 130 -117 154 -69 34 -124 43 -289
48 l-153 5 0 -61z m-110 25 c0 -3 -4 -8 -10 -11 -5 -3 -10 -1 -10 4 0 6 5 11
10 11 6 0 10 -2 10 -4z m168 -80 c3 -12 -1 -17 -10 -14 -7 3 -15 13 -16 22 -3
12 1 17 10 14 7 -3 15 -13 16 -22z m132 10 c0 -3 -4 -8 -10 -11 -5 -3 -10 -1
-10 4 0 6 5 11 10 11 6 0 10 -2 10 -4z m-310 -51 c0 -2 -9 -9 -20 -15 -16 -9
-18 -8 -14 5 5 13 34 22 34 10z m360 -60 c0 -8 -4 -17 -10 -20 -5 -3 -10 -2
-10 4 0 5 -3 17 -6 25 -5 12 -2 15 10 10 9 -3 16 -12 16 -19z m-250 -115 c0
-5 -5 -10 -11 -10 -5 0 -7 5 -4 10 3 6 8 10 11 10 2 0 4 -4 4 -10z m473 -91
c-6 -6 -9 -18 -6 -26 5 -13 2 -13 -15 -4 -28 15 -27 19 1 31 30 12 33 12 20
-1z m32 -19 c3 -5 1 -10 -4 -10 -6 0 -11 5 -11 10 0 6 2 10 4 10 3 0 8 -4 11
-10z m-650 -96 c0 -21 -24 -36 -26 -16 0 4 -2 16 -3 28 -2 15 2 20 13 17 9 -2
16 -15 16 -29z m225 -65 c0 -6 -4 -7 -10 -4 -5 3 -10 11 -10 16 0 6 5 7 10 4
6 -3 10 -11 10 -16z m315 -39 c12 10 15 9 15 -4 0 -20 -19 -20 -44 -1 -11 8
-15 19 -10 26 5 9 10 6 16 -10 7 -19 11 -21 23 -11z m-365 -14 c0 -3 -4 -8
-10 -11 -5 -3 -10 -1 -10 4 0 6 5 11 10 11 6 0 10 -2 10 -4z m442 -38 c-9 -9
-12 -7 -12 12 0 19 3 21 12 12 9 -9 9 -15 0 -24z m-402 -55 c-8 -14 -10 -8 -6
27 6 58 8 62 13 23 2 -18 -1 -41 -7 -50z m370 67 c0 -5 -4 -10 -10 -10 -20 0
-9 -21 15 -30 14 -5 25 -15 25 -21 0 -6 -7 -9 -15 -5 -9 3 -15 0 -15 -10 0
-13 -4 -12 -25 3 -24 18 -25 42 -3 71 12 15 28 16 28 2z m-65 -30 c3 -5 -1
-10 -9 -10 -8 0 -18 5 -21 10 -3 6 1 10 9 10 8 0 18 -4 21 -10z m115 -74 c0
-3 -4 -8 -10 -11 -5 -3 -10 -1 -10 4 0 6 5 11 10 11 6 0 10 -2 10 -4z m-433
-63 c-3 -10 -5 -2 -5 17 0 19 2 27 5 18 2 -10 2 -26 0 -35z m-217 -18 c-7 -9
-15 -13 -19 -10 -3 3 1 10 9 15 21 14 24 12 10 -5z m47 -17 c-3 -7 -5 -2 -5
12 0 14 2 19 5 13 2 -7 2 -19 0 -25z m76 -29 c-5 -5 -7 7 -4 29 5 34 6 35 9 8
2 -16 0 -32 -5 -37z m427 1 c0 -5 -2 -10 -4 -10 -3 0 -8 5 -11 10 -3 6 -1 10
4 10 6 0 11 -4 11 -10z m34 -34 c-21 -15 -30 -14 -19 3 3 6 14 11 23 11 13 0
13 -2 -4 -14z m-387 -21 c0 -8 -4 -12 -9 -9 -5 3 -6 10 -3 15 9 13 12 11 12
-6z m-67 -4 c0 -11 -49 -21 -55 -10 -3 4 3 10 12 12 30 8 43 7 43 -2z m380
-21 c0 -5 -7 -10 -16 -10 -8 0 -12 5 -9 10 3 6 10 10 16 10 5 0 9 -4 9 -10z
m-484 -9 c-8 -12 -46 -21 -46 -11 0 5 10 11 23 13 12 2 23 5 25 6 2 0 1 -3 -2
-8z m211 3 c-3 -3 -12 -4 -19 -1 -8 3 -5 6 6 6 11 1 17 -2 13 -5z m-230 -104
c-1 -11 -4 -20 -8 -20 -4 0 -6 11 -5 24 0 13 4 22 8 20 4 -2 6 -13 5 -24z
m138 10 c3 -5 2 -10 -4 -10 -5 0 -13 5 -16 10 -3 6 -2 10 4 10 5 0 13 -4 16
-10z"/>
<path d="M4006 2949 c1 -38 17 -69 29 -57 8 7 -15 98 -24 98 -4 0 -6 -18 -5
-41z"/>
<path d="M5251 2925 c-12 -48 -9 -67 9 -49 13 13 19 69 10 84 -4 7 -12 -8 -19
-35z"/>
<path d="M915 2940 c3 -5 8 -10 11 -10 2 0 4 5 4 10 0 6 -5 10 -11 10 -5 0 -7
-4 -4 -10z"/>
<path d="M956 2926 c3 -8 12 -12 20 -9 21 8 17 23 -6 23 -13 0 -18 -5 -14 -14z"/>
<path d="M2283 2920 c-1 -11 2 -20 7 -20 4 0 7 7 6 15 -3 23 -12 26 -13 5z"/>
<path d="M930 2889 c0 -5 5 -7 10 -4 6 3 10 8 10 11 0 2 -4 4 -10 4 -5 0 -10
-5 -10 -11z"/>
<path d="M3430 2630 c-13 -9 -13 -10 0 -9 8 0 24 4 35 9 l20 9 -20 0 c-11 0
-27 -4 -35 -9z"/>
<path d="M7630 2580 c-38 -34 -24 -38 32 -12 29 14 35 21 26 30 -16 16 -18 16
-58 -18z"/>
<path d="M7725 2599 c-4 -6 -5 -13 -2 -16 7 -7 27 6 27 18 0 12 -17 12 -25 -2z"/>
<path d="M7475 2591 c-3 -5 -1 -12 5 -16 5 -3 10 1 10 9 0 18 -6 21 -15 7z"/>
<path d="M7520 2554 c0 -18 21 -18 45 -1 16 13 15 14 -14 15 -21 0 -31 -4 -31
-14z"/>
<path d="M7555 2530 c-3 -5 -1 -10 4 -10 6 0 11 5 11 10 0 6 -2 10 -4 10 -3 0
-8 -4 -11 -10z"/>
<path d="M7706 2517 c3 -10 9 -15 12 -12 3 3 0 11 -7 18 -10 9 -11 8 -5 -6z"/>
<path d="M8050 2515 c0 -8 2 -15 4 -15 2 0 6 7 10 15 3 8 1 15 -4 15 -6 0 -10
-7 -10 -15z"/>
<path d="M7672 2464 c4 -19 21 -19 24 1 1 8 -4 15 -13 15 -8 0 -13 -7 -11 -16z"/>
<path d="M3512 2300 c0 -14 2 -19 5 -12 2 6 2 18 0 25 -3 6 -5 1 -5 -13z"/>
<path d="M8074 2128 c2 -13 8 -36 12 -53 l8 -30 6 25 c7 28 -7 80 -21 80 -5 0
-7 -10 -5 -22z"/>
<path d="M100 2019 c0 -5 5 -7 10 -4 6 3 10 8 10 11 0 2 -4 4 -10 4 -5 0 -10
-5 -10 -11z"/>
<path d="M60 1980 c0 -5 7 -10 15 -10 8 0 15 5 15 10 0 6 -7 10 -15 10 -8 0
-15 -4 -15 -10z"/>
<path d="M7103 1888 c2 -21 7 -41 10 -45 11 -10 8 50 -3 67 -8 11 -9 5 -7 -22z"/>
<path d="M2162 1880 c3 -41 18 -50 18 -11 0 16 -5 33 -10 36 -7 4 -10 -6 -8
-25z"/>
<path d="M5134 1879 c7 -45 16 -48 16 -6 0 21 -5 37 -11 37 -6 0 -8 -13 -5
-31z"/>
<path d="M230 1840 c0 -5 5 -10 10 -10 6 0 10 5 10 10 0 6 -4 10 -10 10 -5 0
-10 -4 -10 -10z"/>
<path d="M2450 1820 c0 -5 5 -10 11 -10 5 0 7 5 4 10 -3 6 -8 10 -11 10 -2 0
-4 -4 -4 -10z"/>
<path d="M6340 1699 c0 -27 5 -38 19 -42 38 -9 53 17 42 73 -1 3 -14 5 -31 5
-28 1 -30 -2 -30 -36z"/>
<path d="M6988 1636 c-3 -46 -5 -51 -25 -50 -19 1 -23 -4 -23 -27 0 -24 4 -29
25 -29 l25 0 0 -141 c0 -77 5 -149 10 -160 13 -24 61 -49 95 -49 21 0 25 5 25
30 0 22 -5 30 -17 30 -43 1 -47 13 -48 154 l-1 136 34 0 c30 0 33 2 30 28 -2
19 -9 27 -23 27 -34 0 -42 13 -40 59 1 45 1 45 -31 44 -32 -1 -33 -2 -36 -52z"/>
<path d="M1217 1575 c-67 -23 -70 -31 -69 -237 1 -100 9 -130 40 -147 31 -17
101 -22 142 -11 49 13 75 39 78 79 2 27 0 29 -28 28 -22 -2 -34 -9 -43 -27
-15 -31 -67 -39 -102 -16 -23 15 -23 20 -22 137 2 106 4 122 21 135 35 25 114
0 116 -37 0 -13 52 -6 57 8 8 21 -12 59 -40 78 -33 21 -104 26 -150 10z"/>
<path d="M2001 1569 c-51 -23 -58 -47 -55 -207 1 -110 4 -136 19 -152 25 -28
65 -39 131 -35 50 3 62 7 85 33 26 29 26 31 25 177 l-1 147 -28 24 c-15 13
-33 24 -40 25 -73 5 -104 3 -136 -12z m131 -62 c7 -12 12 -131 8 -212 -2 -46
-21 -64 -67 -65 -56 0 -63 17 -63 150 0 112 1 120 23 135 24 17 86 12 99 -8z"/>
<path d="M2813 1576 c-65 -22 -67 -28 -68 -221 l-2 -175 34 0 33 0 0 163 0
164 25 11 c35 16 56 15 83 -4 21 -15 22 -21 22 -173 l0 -159 25 -4 c14 -3 29
0 33 6 3 6 7 79 7 163 0 109 4 156 13 165 19 19 91 16 107 -5 9 -12 12 -61 11
-172 l-1 -155 35 0 35 0 -2 166 c-1 183 -7 205 -56 225 -36 15 -127 16 -153 1
-11 -6 -27 -7 -41 -1 -38 14 -105 17 -140 5z"/>
<path d="M3845 1585 c-5 -2 -22 -6 -37 -9 -15 -4 -37 -16 -48 -28 -18 -20 -20
-35 -20 -195 l0 -173 30 0 c17 0 30 5 31 13 0 6 1 77 1 156 0 125 3 146 19
162 21 21 87 19 104 -4 6 -8 10 -76 10 -170 l-1 -155 28 -4 c16 -3 30 -2 33 0
3 3 5 76 5 163 0 158 0 159 25 175 30 19 90 12 99 -12 3 -9 6 -85 6 -170 l0
-154 33 0 34 0 -2 168 c-3 206 0 187 -34 211 -36 26 -101 33 -156 16 -23 -7
-49 -9 -56 -5 -16 9 -89 19 -104 15z"/>
<path d="M5605 1578 c-69 -20 -70 -20 -73 -218 l-4 -180 35 0 34 0 -1 161 c0
149 2 162 20 172 31 18 64 19 90 2 24 -15 24 -18 24 -175 l0 -160 33 0 32 0
-1 162 c0 90 -4 173 -8 186 -14 43 -112 70 -181 50z"/>
<path d="M4737 1573 c-3 -4 -4 -83 -3 -174 1 -147 3 -169 19 -187 59 -65 219
-45 237 29 3 13 6 94 5 179 l-1 155 -32 3 -32 3 0 -158 c0 -87 -5 -165 -10
-173 -11 -18 -93 -21 -110 -4 -8 8 -12 67 -13 170 l-2 159 -27 3 c-14 2 -28 0
-31 -5z"/>
<path d="M6340 1380 l0 -201 32 3 33 3 0 195 0 195 -33 3 -32 3 0 -201z"/>
<path d="M7636 1426 c1 -170 8 -194 61 -213 133 -50 128 -46 128 -88 0 -37 -2
-40 -38 -48 -41 -10 -87 10 -87 38 0 21 -47 19 -59 -2 -23 -42 39 -94 111 -95
74 -1 90 3 118 31 l29 28 1 252 1 251 -34 0 -33 0 1 -167 c0 -93 -1 -171 -2
-175 -6 -12 -97 23 -115 44 -15 17 -18 41 -18 159 l0 139 -32 0 -33 0 1 -154z"/>
</g>
</svg>
